<svg xmlns="http://www.w3.org/2000/svg" xmlns:xlink="http://www.w3.org/1999/xlink" viewBox="0 0 48 48" width="48" height="48" preserveAspectRatio="xMidYMid meet" style="width: 100%; height: 100%; transform: translate3d(0px, 0px, 0px); content-visibility: visible;"><defs><clipPath id="__lottie_element_73"><rect width="48" height="48" x="0" y="0"></rect></clipPath></defs><g clip-path="url(#__lottie_element_73)"><g transform="matrix(2,0,0,2,0,0)" opacity="1" style="display: block;"><g opacity="1" transform="matrix(1,0,0,1,13.07800006866455,10.803999900817871)"><path fill="rgb(7,172,255)" fill-opacity="1" d=" M-7.202000141143799,3.2920000553131104 C-7.202000141143799,3.2920000553131104 -3.2920000553131104,7.202000141143799 -3.2920000553131104,7.202000141143799 C-3.2920000553131104,7.202000141143799 -2.2309999465942383,6.142000198364258 -2.2309999465942383,6.142000198364258 C-2.2309999465942383,6.142000198364258 -6.142000198364258,2.2309999465942383 -6.142000198364258,2.2309999465942383 C-6.142000198364258,2.2309999465942383 -7.202000141143799,3.2920000553131104 -7.202000141143799,3.2920000553131104z M3.325000047683716,2.686000108718872 C1.3109999895095825,4.699999809265137 -1.0069999694824219,5.808000087738037 -2.809999942779541,5.922999858856201 C-2.809999942779541,5.922999858856201 -2.7139999866485596,7.420000076293945 -2.7139999866485596,7.420000076293945 C-0.44600000977516174,7.275000095367432 2.194999933242798,5.935999870300293 4.385000228881836,3.746000051498413 C4.385000228881836,3.746000051498413 3.325000047683716,2.686000108718872 3.325000047683716,2.686000108718872z M-5.922999858856201,2.809999942779541 C-5.808000087738037,1.0069999694824219 -4.699999809265137,-1.3109999895095825 -2.686000108718872,-3.325000047683716 C-2.686000108718872,-3.325000047683716 -3.746000051498413,-4.385000228881836 -3.746000051498413,-4.385000228881836 C-5.935999870300293,-2.194999933242798 -7.275000095367432,0.44600000977516174 -7.420000076293945,2.7139999866485596 C-7.420000076293945,2.7139999866485596 -5.922999858856201,2.809999942779541 -5.922999858856201,2.809999942779541z M6.36299991607666,-6.36299991607666 C5.639999866485596,-6.164999961853027 5.639999866485596,-6.164999961853027 5.639999866485596,-6.164999961853027 C5.639999866485596,-6.164999961853027 5.639999866485596,-6.165999889373779 5.639999866485596,-6.165999889373779 C5.639999866485596,-6.165999889373779 5.638999938964844,-6.165999889373779 5.638999938964844,-6.165999889373779 C5.638999938964844,-6.165999889373779 5.639999866485596,-6.166999816894531 5.639999866485596,-6.165999889373779 C5.639999866485596,-6.164999961853027 5.639999866485596,-6.163000106811523 5.640999794006348,-6.158999919891357 C5.64300012588501,-6.1519999504089355 5.646999835968018,-6.138999938964844 5.651000022888184,-6.122000217437744 C5.658999919891357,-6.0879998207092285 5.671999931335449,-6.033999919891357 5.686999797821045,-5.961999893188477 C5.7170000076293945,-5.817999839782715 5.757999897003174,-5.604000091552734 5.795000076293945,-5.331999778747559 C5.86899995803833,-4.7870001792907715 5.929999828338623,-4.01800012588501 5.872000217437744,-3.132999897003174 C5.75600004196167,-1.3630000352859497 5.172999858856201,0.8379999995231628 3.325000047683716,2.686000108718872 C3.325000047683716,2.686000108718872 4.385000228881836,3.746000051498413 4.385000228881836,3.746000051498413 C6.565999984741211,1.565000057220459 7.236999988555908,-1.0240000486373901 7.368000030517578,-3.0360000133514404 C7.434000015258789,-4.041999816894531 7.366000175476074,-4.9120001792907715 7.281000137329102,-5.533999919891357 C7.23799991607666,-5.84499979019165 7.190999984741211,-6.0970001220703125 7.1539998054504395,-6.271999835968018 C7.135000228881836,-6.360000133514404 7.119999885559082,-6.428999900817871 7.107999801635742,-6.478000164031982 C7.1020002365112305,-6.501999855041504 7.0970001220703125,-6.520999908447266 7.0929999351501465,-6.534999847412109 C7.091000080108643,-6.541999816894531 7.090000152587891,-6.547999858856201 7.089000225067139,-6.552000045776367 C7.0879998207092285,-6.553999900817871 7.086999893188477,-6.557000160217285 7.086999893188477,-6.558000087738037 C7.086999893188477,-6.559000015258789 7.086999893188477,-6.559000015258789 7.086999893188477,-6.559999942779541 C7.086999893188477,-6.559999942779541 7.086999893188477,-6.560999870300293 7.086999893188477,-6.560999870300293 C7.086999893188477,-6.560999870300293 7.085999965667725,-6.560999870300293 6.36299991607666,-6.36299991607666z M-2.686000108718872,-3.325000047683716 C-0.8379999995231628,-5.172999858856201 1.3630000352859497,-5.75600004196167 3.132999897003174,-5.872000217437744 C4.01800012588501,-5.929999828338623 4.7870001792907715,-5.86899995803833 5.331999778747559,-5.795000076293945 C5.604000091552734,-5.757999897003174 5.817999839782715,-5.7170000076293945 5.961999893188477,-5.686999797821045 C6.033999919891357,-5.671999931335449 6.0879998207092285,-5.658999919891357 6.122000217437744,-5.651000022888184 C6.138999938964844,-5.646999835968018 6.1519999504089355,-5.64300012588501 6.158999919891357,-5.640999794006348 C6.163000106811523,-5.639999866485596 6.164999961853027,-5.639999866485596 6.165999889373779,-5.639999866485596 C6.166999816894531,-5.639999866485596 6.165999889373779,-5.638999938964844 6.165999889373779,-5.638999938964844 C6.165999889373779,-5.638999938964844 6.165999889373779,-5.639999866485596 6.165999889373779,-5.639999866485596 C6.165999889373779,-5.639999866485596 6.164999961853027,-5.639999866485596 6.164999961853027,-5.639999866485596 C6.164999961853027,-5.639999866485596 6.164999961853027,-5.639999866485596 6.36299991607666,-6.36299991607666 C6.560999870300293,-7.085999965667725 6.560999870300293,-7.086999893188477 6.560999870300293,-7.086999893188477 C6.560999870300293,-7.086999893188477 6.559999942779541,-7.086999893188477 6.559999942779541,-7.086999893188477 C6.559000015258789,-7.086999893188477 6.559000015258789,-7.086999893188477 6.558000087738037,-7.086999893188477 C6.557000160217285,-7.086999893188477 6.553999900817871,-7.0879998207092285 6.552000045776367,-7.089000225067139 C6.547999858856201,-7.090000152587891 6.541999816894531,-7.091000080108643 6.534999847412109,-7.0929999351501465 C6.520999908447266,-7.0970001220703125 6.501999855041504,-7.1020002365112305 6.478000164031982,-7.107999801635742 C6.428999900817871,-7.119999885559082 6.360000133514404,-7.135000228881836 6.271999835968018,-7.1539998054504395 C6.0970001220703125,-7.190999984741211 5.84499979019165,-7.23799991607666 5.533999919891357,-7.281000137329102 C4.9120001792907715,-7.366000175476074 4.041999816894531,-7.434000015258789 3.0360000133514404,-7.368000030517578 C1.0240000486373901,-7.236999988555908 -1.565000057220459,-6.565999984741211 -3.746000051498413,-4.385000228881836 C-3.746000051498413,-4.385000228881836 -2.686000108718872,-3.325000047683716 -2.686000108718872,-3.325000047683716z M-2.76200008392334,6.671999931335449 C-2.76200008392334,6.671999931335449 -3.2920000553131104,7.202000141143799 -3.2920000553131104,7.202000141143799 C-3.140000104904175,7.354000091552734 -2.928999900817871,7.434000015258789 -2.7139999866485596,7.420000076293945 C-2.7139999866485596,7.420000076293945 -2.76200008392334,6.671999931335449 -2.76200008392334,6.671999931335449z M-6.671999931335449,2.76200008392334 C-6.671999931335449,2.76200008392334 -7.420000076293945,2.7139999866485596 -7.420000076293945,2.7139999866485596 C-7.434000015258789,2.928999900817871 -7.354000091552734,3.140000104904175 -7.202000141143799,3.2920000553131104 C-7.202000141143799,3.2920000553131104 -6.671999931335449,2.76200008392334 -6.671999931335449,2.76200008392334z M6.36299991607666,-6.36299991607666 C6.36299991607666,-6.36299991607666 7.086999893188477,-6.560999870300293 7.086999893188477,-6.560999870300293 C7.017000198364258,-6.815999984741211 6.815999984741211,-7.017000198364258 6.560999870300293,-7.086999893188477 C6.560999870300293,-7.086999893188477 6.36299991607666,-6.36299991607666 6.36299991607666,-6.36299991607666z"></path></g><g opacity="1" transform="matrix(1,0,0,1,14.942999839782715,18.06800079345703)"><path fill="rgb(7,172,255)" fill-opacity="1" d=" M1.38100004196167,1.5889999866485596 C2.3589999675750732,0.6110000014305115 2.7720000743865967,-0.796999990940094 2.4769999980926514,-2.1480000019073486 C2.4769999980926514,-2.1480000019073486 1.0110000371932983,-1.8279999494552612 1.0110000371932983,-1.8279999494552612 C1.1970000267028809,-0.9760000109672546 0.9369999766349792,-0.08799999952316284 0.32100000977516174,0.527999997138977 C0.32100000977516174,0.527999997138977 1.38100004196167,1.5889999866485596 1.38100004196167,1.5889999866485596z M-2.6649999618530273,-0.10599999874830246 C-2.6649999618530273,-0.10599999874830246 -2.371999979019165,0.9850000143051147 -2.371999979019165,0.9850000143051147 C-2.371999979019165,0.9850000143051147 -0.9229999780654907,0.597000002861023 -0.9229999780654907,0.597000002861023 C-0.9229999780654907,0.597000002861023 -1.215999960899353,-0.49399998784065247 -1.215999960899353,-0.49399998784065247 C-1.215999960899353,-0.49399998784065247 -2.6649999618530273,-0.10599999874830246 -2.6649999618530273,-0.10599999874830246z M-2.371999979019165,0.9850000143051147 C-2.371999979019165,0.9850000143051147 -1.7869999408721924,3.1670000553131104 -1.7869999408721924,3.1670000553131104 C-1.7869999408721924,3.1670000553131104 -0.33799999952316284,2.7780001163482666 -0.33799999952316284,2.7780001163482666 C-0.33799999952316284,2.7780001163482666 -0.9229999780654907,0.597000002861023 -0.9229999780654907,0.597000002861023 C-0.9229999780654907,0.597000002861023 -2.371999979019165,0.9850000143051147 -2.371999979019165,0.9850000143051147z M2.4769999980926514,-2.1480000019073486 C2.4769999980926514,-2.1480000019073486 2.2669999599456787,-3.1050000190734863 2.2669999599456787,-3.1050000190734863 C2.2669999599456787,-3.1050000190734863 0.8019999861717224,-2.7850000858306885 0.8019999861717224,-2.7850000858306885 C0.8019999861717224,-2.7850000858306885 1.0110000371932983,-1.8279999494552612 1.0110000371932983,-1.8279999494552612 C1.0110000371932983,-1.8279999494552612 2.4769999980926514,-2.1480000019073486 2.4769999980926514,-2.1480000019073486z M-0.5320000052452087,3.503000020980835 C-0.5320000052452087,3.503000020980835 1.38100004196167,1.5889999866485596 1.38100004196167,1.5889999866485596 C1.38100004196167,1.5889999866485596 0.32100000977516174,0.527999997138977 0.32100000977516174,0.527999997138977 C0.32100000977516174,0.527999997138977 -1.593000054359436,2.441999912261963 -1.593000054359436,2.441999912261963 C-1.593000054359436,2.441999912261963 -0.5320000052452087,3.503000020980835 -0.5320000052452087,3.503000020980835z M-1.215999960899353,-0.49399998784065247 C-1.3229999542236328,-0.8939999938011169 -1.7339999675750732,-1.13100004196167 -2.134000062942505,-1.0240000486373901 C-2.5339999198913574,-0.9169999957084656 -2.7720000743865967,-0.5059999823570251 -2.6649999618530273,-0.10599999874830246 C-2.6649999618530273,-0.10599999874830246 -1.215999960899353,-0.49399998784065247 -1.215999960899353,-0.49399998784065247z M2.2669999599456787,-3.1050000190734863 C2.178999900817871,-3.509999990463257 1.7799999713897705,-3.7660000324249268 1.375,-3.677999973297119 C0.9700000286102295,-3.5899999141693115 0.7139999866485596,-3.190000057220459 0.8019999861717224,-2.7850000858306885 C0.8019999861717224,-2.7850000858306885 2.2669999599456787,-3.1050000190734863 2.2669999599456787,-3.1050000190734863z M-1.062999963760376,2.9719998836517334 C-1.062999963760376,2.9719998836517334 -1.7869999408721924,3.1670000553131104 -1.7869999408721924,3.1670000553131104 C-1.718000054359436,3.4260001182556152 -1.5160000324249268,3.628000020980835 -1.2569999694824219,3.697000026702881 C-0.9980000257492065,3.7660000324249268 -0.7210000157356262,3.691999912261963 -0.5320000052452087,3.503000020980835 C-0.5320000052452087,3.503000020980835 -1.062999963760376,2.9719998836517334 -1.062999963760376,2.9719998836517334z"></path></g><g opacity="1" transform="matrix(1,0,0,1,5.892999649047852,9.016999244689941)"><path fill="rgb(7,172,255)" fill-opacity="1" d=" M-1.5889999866485596,-1.38100004196167 C-0.6110000014305115,-2.3589999675750732 0.796999990940094,-2.7720000743865967 2.1480000019073486,-2.4769999980926514 C2.1480000019073486,-2.4769999980926514 1.8279999494552612,-1.0110000371932983 1.8279999494552612,-1.0110000371932983 C0.9760000109672546,-1.1970000267028809 0.08799999952316284,-0.9369999766349792 -0.527999997138977,-0.32100000977516174 C-0.527999997138977,-0.32100000977516174 -1.5889999866485596,-1.38100004196167 -1.5889999866485596,-1.38100004196167z M0.10599999874830246,2.6649999618530273 C0.10599999874830246,2.6649999618530273 -0.9850000143051147,2.371999979019165 -0.9850000143051147,2.371999979019165 C-0.9850000143051147,2.371999979019165 -0.597000002861023,0.9229999780654907 -0.597000002861023,0.9229999780654907 C-0.597000002861023,0.9229999780654907 0.49399998784065247,1.215999960899353 0.49399998784065247,1.215999960899353 C0.49399998784065247,1.215999960899353 0.10599999874830246,2.6649999618530273 0.10599999874830246,2.6649999618530273z M-0.9850000143051147,2.371999979019165 C-0.9850000143051147,2.371999979019165 -3.1670000553131104,1.7869999408721924 -3.1670000553131104,1.7869999408721924 C-3.1670000553131104,1.7869999408721924 -2.7780001163482666,0.33799999952316284 -2.7780001163482666,0.33799999952316284 C-2.7780001163482666,0.33799999952316284 -0.597000002861023,0.9229999780654907 -0.597000002861023,0.9229999780654907 C-0.597000002861023,0.9229999780654907 -0.9850000143051147,2.371999979019165 -0.9850000143051147,2.371999979019165z M2.1480000019073486,-2.4769999980926514 C2.1480000019073486,-2.4769999980926514 3.1050000190734863,-2.2669999599456787 3.1050000190734863,-2.2669999599456787 C3.1050000190734863,-2.2669999599456787 2.7850000858306885,-0.8019999861717224 2.7850000858306885,-0.8019999861717224 C2.7850000858306885,-0.8019999861717224 1.8279999494552612,-1.0110000371932983 1.8279999494552612,-1.0110000371932983 C1.8279999494552612,-1.0110000371932983 2.1480000019073486,-2.4769999980926514 2.1480000019073486,-2.4769999980926514z M-3.503000020980835,0.5320000052452087 C-3.503000020980835,0.5320000052452087 -1.5889999866485596,-1.38100004196167 -1.5889999866485596,-1.38100004196167 C-1.5889999866485596,-1.38100004196167 -0.527999997138977,-0.32100000977516174 -0.527999997138977,-0.32100000977516174 C-0.527999997138977,-0.32100000977516174 -2.441999912261963,1.593000054359436 -2.441999912261963,1.593000054359436 C-2.441999912261963,1.593000054359436 -3.503000020980835,0.5320000052452087 -3.503000020980835,0.5320000052452087z M0.49399998784065247,1.215999960899353 C0.8939999938011169,1.3229999542236328 1.13100004196167,1.7339999675750732 1.0240000486373901,2.134000062942505 C0.9169999957084656,2.5339999198913574 0.5059999823570251,2.7720000743865967 0.10599999874830246,2.6649999618530273 C0.10599999874830246,2.6649999618530273 0.49399998784065247,1.215999960899353 0.49399998784065247,1.215999960899353z M3.1050000190734863,-2.2669999599456787 C3.509999990463257,-2.178999900817871 3.7660000324249268,-1.7799999713897705 3.677999973297119,-1.375 C3.5899999141693115,-0.9700000286102295 3.190000057220459,-0.7139999866485596 2.7850000858306885,-0.8019999861717224 C2.7850000858306885,-0.8019999861717224 3.1050000190734863,-2.2669999599456787 3.1050000190734863,-2.2669999599456787z M-2.9719998836517334,1.062999963760376 C-2.9719998836517334,1.062999963760376 -3.1670000553131104,1.7869999408721924 -3.1670000553131104,1.7869999408721924 C-3.4260001182556152,1.718000054359436 -3.628000020980835,1.5160000324249268 -3.697000026702881,1.2569999694824219 C-3.7660000324249268,0.9980000257492065 -3.691999912261963,0.7210000157356262 -3.503000020980835,0.5320000052452087 C-3.503000020980835,0.5320000052452087 -2.9719998836517334,1.062999963760376 -2.9719998836517334,1.062999963760376z"></path></g></g><g transform="matrix(1,0,0,1,24,24)" opacity="1" style="display: block;"><g opacity="1" transform="matrix(1,0,0,1,0,0)"><path stroke-linecap="butt" stroke-linejoin="miter" fill-opacity="0" stroke-miterlimit="4" stroke="rgb(7,172,255)" stroke-opacity="1" stroke-width="3" d=" M-9,5.688000202178955 C-9,5.688000202178955 -12.343999862670898,5.531000137329102 -14.25,8 C-15.968999862670898,10.22599983215332 -14.87399959564209,14.281999588012695 -14.562000274658203,14.687999725341797 C-14.187000274658203,15.093999862670898 -10.083000183105469,16.266000747680664 -7.561999797821045,13.781000137329102 C-5.406000137329102,11.656000137329102 -5.5,9.187999725341797 -5.5,9.187999725341797"></path></g></g><g transform="matrix(0,0,0,0,20.062000274658203,3.812000036239624)" opacity="1" style="display: block;"><g opacity="1" transform="matrix(1,0,0,1,0,0)"><path fill="rgb(7,172,255)" fill-opacity="1" d=" M-7,-9 C-7.311999797821045,-8.984000205993652 -7.311999797821045,-8.07800006866455 -7.6479997634887695,-7.742000102996826 C-7.979000091552734,-7.410999774932861 -9.015999794006348,-7.218999862670898 -9,-7 C-9,-6.656000137329102 -8.057000160217285,-6.635000228881836 -7.734000205993652,-6.311999797821045 C-7.389999866485596,-5.9679999351501465 -7.296999931335449,-5 -7,-5 C-6.734000205993652,-5 -6.651000022888184,-5.941999912261963 -6.311999797821045,-6.281000137329102 C-5.984000205993652,-6.609000205993652 -5,-6.656000137329102 -5,-7 C-5,-7.296999931335449 -5.968999862670898,-7.343999862670898 -6.343999862670898,-7.718999862670898 C-6.636000156402588,-8.01099967956543 -6.640999794006348,-9.031000137329102 -7,-9z"></path></g></g><g transform="matrix(-0.028032885864377022,0.0005811500013805926,-0.0005811500013805926,-0.028032885864377022,37.78124237060547,39.20195770263672)" opacity="1" style="display: none;"><g opacity="1" transform="matrix(1,0,0,1,0,0)"><path fill="rgb(7,172,255)" fill-opacity="1" d=" M-7,-9 C-7.311999797821045,-8.984000205993652 -7.311999797821045,-8.07800006866455 -7.6479997634887695,-7.742000102996826 C-7.979000091552734,-7.410999774932861 -9.015999794006348,-7.218999862670898 -9,-7 C-9,-6.656000137329102 -8.057000160217285,-6.635000228881836 -7.734000205993652,-6.311999797821045 C-7.389999866485596,-5.9679999351501465 -7.296999931335449,-5 -7,-5 C-6.734000205993652,-5 -6.651000022888184,-5.941999912261963 -6.311999797821045,-6.281000137329102 C-5.984000205993652,-6.609000205993652 -5,-6.656000137329102 -5,-7 C-5,-7.296999931335449 -5.968999862670898,-7.343999862670898 -6.343999862670898,-7.718999862670898 C-6.636000156402588,-8.01099967956543 -6.640999794006348,-9.031000137329102 -7,-9z"></path></g></g></g></svg>