<svg xmlns="http://www.w3.org/2000/svg" xmlns:xlink="http://www.w3.org/1999/xlink" viewBox="0 0 48 48" width="48" height="48" preserveAspectRatio="xMidYMid meet" style="width: 100%; height: 100%; transform: translate3d(0px, 0px, 0px); content-visibility: visible;"><defs><clipPath id="__lottie_element_49"><rect width="48" height="48" x="0" y="0"></rect></clipPath><clipPath id="__lottie_element_51"><path d="M0,0 L24,0 L24,24 L0,24z"></path></clipPath><g id="__lottie_element_58"><g transform="matrix(1.100001573562622,0,0,1.100001573562622,-1.1980185508728027,-0.9980148673057556)" opacity="1" style="display: block;"><path fill="rgb(255,0,0)" fill-opacity="1" d=" M11.98,16.96 C15.83,16.96 18.96,13.83 18.96,9.98 C18.96,6.12 15.83,3 11.98,3 C8.12,3 5,6.12 5,9.98 C5,13.83 8.12,16.96 11.98,16.96z"></path><g opacity="1" transform="matrix(1,0,0,1,11.979999542236328,9.979999542236328)"></g></g></g><g id="__lottie_element_64"><g transform="matrix(1.100001573562622,0,0,1.100001573562622,-1.1980185508728027,-0.9980148673057556)" opacity="1" style="display: block;"><path fill="rgb(255,0,0)" fill-opacity="1" d=" M11.98,16.96 C15.83,16.96 18.96,13.83 18.96,9.98 C18.96,6.12 15.83,3 11.98,3 C8.12,3 5,6.12 5,9.98 C5,13.83 8.12,16.96 11.98,16.96z"></path><g opacity="1" transform="matrix(1,0,0,1,11.979999542236328,9.979999542236328)"></g></g></g><filter id="__lottie_element_70" filterUnits="objectBoundingBox" x="0%" y="0%" width="100%" height="100%"><feComponentTransfer in="SourceGraphic"><feFuncA type="table" tableValues="1.0 0.0"></feFuncA></feComponentTransfer></filter><mask id="__lottie_element_64_2" mask-type="alpha"><g filter="url(#__lottie_element_70)"><rect width="24" height="24" x="0" y="0" fill="#ffffff" opacity="0"></rect><use xlink:href="#__lottie_element_64"></use></g></mask><filter id="__lottie_element_71" filterUnits="objectBoundingBox" x="0%" y="0%" width="100%" height="100%"><feComponentTransfer in="SourceGraphic"><feFuncA type="table" tableValues="1.0 0.0"></feFuncA></feComponentTransfer></filter><mask id="__lottie_element_58_2" mask-type="alpha"><g filter="url(#__lottie_element_71)"><rect width="24" height="24" x="0" y="0" fill="#ffffff" opacity="0"></rect><use xlink:href="#__lottie_element_58"></use></g></mask></defs><g clip-path="url(#__lottie_element_49)"><g clip-path="url(#__lottie_element_51)" transform="matrix(2,0,0,2,0,0)" opacity="1" style="display: block;"><g mask="url(#__lottie_element_58_2)" style="display: block;"><g transform="matrix(0.9999983906745911,0,0,0.9999983906745911,0.0001870357955340296,0.000028344391466816887)" opacity="1"><g opacity="1" transform="matrix(1,0,0,1,16.239999771118164,18.200000762939453)"><path stroke-linecap="round" stroke-linejoin="round" fill-opacity="0" stroke="rgb(7,172,255)" stroke-opacity="1" stroke-width="1.5" d=" M-2.8299999237060547,-0.9399999976158142 C-2.8299999237060547,-0.9399999976158142 -1.309999942779541,3.200000047683716 -1.309999942779541,3.200000047683716 C-1.309999942779541,3.200000047683716 0.2199999988079071,0.9599999785423279 0.2199999988079071,0.9599999785423279 C0.2199999988079071,0.9599999785423279 2.8299999237060547,1.690000057220459 2.8299999237060547,1.690000057220459 C2.8299999237060547,1.690000057220459 1.0499999523162842,-3.200000047683716 1.0499999523162842,-3.200000047683716"></path></g></g></g><g mask="url(#__lottie_element_64_2)" style="display: block;"><g transform="matrix(-0.9999983906745911,0,0,0.9999983906745911,32.3914909362793,0.24994899332523346)" opacity="1"><g opacity="1" transform="matrix(1,0,0,1,24.395999908447266,18.200000762939453)"><path stroke-linecap="round" stroke-linejoin="round" fill-opacity="0" stroke="rgb(7,172,255)" stroke-opacity="1" stroke-width="1.5" d=" M-2.8299999237060547,-0.9399999976158142 C-2.8299999237060547,-0.9399999976158142 -1.309999942779541,3.200000047683716 -1.309999942779541,3.200000047683716 C-1.309999942779541,3.200000047683716 0.2199999988079071,0.9599999785423279 0.2199999988079071,0.9599999785423279 C0.2199999988079071,0.9599999785423279 2.8299999237060547,1.690000057220459 2.8299999237060547,1.690000057220459 C2.8299999237060547,1.690000057220459 1.0499999523162842,-3.200000047683716 1.0499999523162842,-3.200000047683716"></path></g></g></g><g transform="matrix(0.9999983906745911,0,0,0.9999983906745911,0.0000197994704649318,0.0000197994704649318)" opacity="1" style="display: block;"><g opacity="1" transform="matrix(1,0,0,1,11.979999542236328,9.979999542236328)"><path stroke-linecap="round" stroke-linejoin="round" fill-opacity="0" stroke="rgb(7,172,255)" stroke-opacity="1" stroke-width="1.5" d=" M0,6.980000019073486 C3.8550000190734863,6.980000019073486 6.980000019073486,3.8550000190734863 6.980000019073486,0 C6.980000019073486,-3.8550000190734863 3.8550000190734863,-6.980000019073486 0,-6.980000019073486 C-3.8550000190734863,-6.980000019073486 -6.980000019073486,-3.8550000190734863 -6.980000019073486,0 C-6.980000019073486,3.8550000190734863 -3.8550000190734863,6.980000019073486 0,6.980000019073486z"></path></g></g></g></g></svg>