<svg width="22" height="18" fill="none" xmlns="http://www.w3.org/2000/svg"><g clip-path="url(#clip0_28143_25191)" fill="#fff"><path d="M19.04 14.047c.237.002.473-.017.707-.055a4.764 4.764 0 0 1-4.49 3.215H5.208a4.757 4.757 0 0 1-3.365-1.395A4.766 4.766 0 0 1 .45 12.444V5.06c0-1.263.502-2.475 1.394-3.368A4.757 4.757 0 0 1 5.208.297h10.05a4.756 4.756 0 0 1 4.489 3.215 4.168 4.168 0 0 0-.706-.055h-3.966A3.647 3.647 0 0 0 11.427 7.1v3.286a3.653 3.653 0 0 0 3.648 3.644l3.966.016z"/><path d="M12.696 7.116v3.287a2.383 2.383 0 0 0 2.379 2.381h3.966a2.965 2.965 0 0 0 2.966-2.969V7.711a2.979 2.979 0 0 0-2.966-2.977h-3.966a2.378 2.378 0 0 0-2.38 2.382zm3.244 3.231a1.585 1.585 0 0 1-1.556-1.897 1.588 1.588 0 0 1 2.163-1.157 1.586 1.586 0 0 1 .514 2.59 1.586 1.586 0 0 1-1.121.464z"/></g><defs><clipPath id="clip0_28143_25191"><path fill="#fff" transform="translate(0 .29)" d="M0 0H22V16.958H0z"/></clipPath></defs></svg>