
    <svg width="76" height="28" fill="none" xmlns="http://www.w3.org/2000/svg"><g clip-path="url(#ton-mobile_svg__clip0_625_2112)"><path d="M18 5H0V23H18V5Z" fill="white"></path><path d="M11.3379 7.69653H6.6621C5.966 7.69653 5.39648 8.26254 5.39648 8.96215V19.0414C5.39648 19.7375 5.96249 20.3071 6.6621 20.3071H11.3379C12.034 20.3071 12.6035 19.7411 12.6035 19.0414V8.96215C12.6035 8.26254 12.0375 7.69653 11.3379 7.69653ZM12.1641 19.0133C12.1641 19.4774 11.7879 19.8536 11.3238 19.8536H6.67616C6.2121 19.8536 5.83594 19.4774 5.83594 19.0133V8.98676C5.83594 8.5227 6.2121 8.14653 6.67616 8.14653H7.52344C7.6078 8.14653 10.3887 8.14653 10.473 8.14653H11.3238C11.7879 8.14653 12.1641 8.5227 12.1641 8.98676V19.0133Z" fill="#07ACFF"></path><path d="M10.0899 8.83204C10.0899 8.9586 9.98798 9.06055 9.8614 9.06055H8.1493C8.02274 9.06055 7.91375 8.96211 7.91024 8.83906C7.90673 8.709 8.01219 8.60352 8.13875 8.60352H9.8614C9.98798 8.60352 10.0899 8.70547 10.0899 8.83204Z" fill="#07ACFF"></path><path d="M11.4082 13.1282C11.4082 13.2547 11.3063 13.3567 11.1797 13.3567H9.22852V12.8997H11.1797C11.3063 12.8997 11.4082 13.0016 11.4082 13.1282Z" fill="#07ACFF"></path><path d="M10.7613 14.0422C10.7613 14.1688 10.6594 14.2708 10.5328 14.2708H9.22852V13.8137H10.5328C10.6594 13.8137 10.7613 13.9157 10.7613 14.0422Z" fill="#07ACFF"></path><path d="M10.1531 14.9563C10.1531 15.0829 10.0512 15.1848 9.92461 15.1848H9.22852V14.7278H9.92461C10.0512 14.7278 10.1531 14.8297 10.1531 14.9563Z" fill="#07ACFF"></path><path d="M8.77149 12.8997V13.3567H6.82031C6.69375 13.3567 6.5918 13.2547 6.5918 13.1282C6.5918 13.0016 6.69375 12.8997 6.82031 12.8997H8.77149Z" fill="#07ACFF"></path><path d="M8.7716 13.8137V14.2708H7.4673C7.34074 14.2708 7.23877 14.1688 7.23877 14.0422C7.23877 13.9157 7.34074 13.8137 7.4673 13.8137H8.7716Z" fill="#07ACFF"></path><path d="M8.77129 14.7278V15.1848H8.07519C7.94863 15.1848 7.84668 15.0829 7.84668 14.9563C7.84668 14.8297 7.94863 14.7278 8.07519 14.7278H8.77129Z" fill="#07ACFF"></path><path d="M8.99999 16.0988C8.98594 16.0988 8.96835 16.0988 8.95429 16.0953C8.94023 16.0918 8.92616 16.0883 8.9121 16.0812C8.89804 16.0742 8.88398 16.0672 8.87344 16.0601C8.85936 16.0531 8.84883 16.0426 8.83828 16.032C8.82773 16.0215 8.81719 16.0109 8.81015 15.9968C8.80313 15.9828 8.79609 15.9722 8.78905 15.9582C8.78203 15.9441 8.7785 15.9301 8.77499 15.916C8.77148 15.9019 8.77148 15.8844 8.77148 15.8703C8.77148 15.8562 8.77148 15.8422 8.77499 15.8246C8.7785 15.8105 8.78203 15.7965 8.78905 15.7824C8.79609 15.7683 8.80313 15.7543 8.81015 15.7437C8.81719 15.7297 8.82773 15.7191 8.83828 15.7086C8.84883 15.698 8.85936 15.6875 8.87344 15.6804C8.88749 15.6734 8.89804 15.6664 8.9121 15.6594C8.92616 15.6523 8.94023 15.6488 8.95429 15.6453C8.98241 15.6383 9.01405 15.6383 9.04219 15.6453C9.05624 15.6488 9.0703 15.6523 9.08436 15.6594C9.09844 15.6664 9.11249 15.6734 9.12304 15.6804C9.1371 15.6875 9.14765 15.698 9.1582 15.7086C9.16874 15.7191 9.17929 15.7297 9.18633 15.7437C9.19335 15.7578 9.20039 15.7683 9.20741 15.7824C9.21445 15.7965 9.21796 15.8105 9.22148 15.8246C9.22499 15.8386 9.22499 15.8527 9.22499 15.8703C9.22499 15.8844 9.22499 15.9019 9.22148 15.916C9.21796 15.9301 9.21445 15.9441 9.20741 15.9582C9.20039 15.9722 9.19335 15.9863 9.18633 15.9968C9.17929 16.0109 9.16874 16.0215 9.1582 16.032C9.14765 16.0426 9.1371 16.0531 9.12304 16.0601C9.11249 16.0672 9.09844 16.0742 9.08436 16.0812C9.0703 16.0883 9.05624 16.0918 9.04219 16.0953C9.03164 16.0953 9.01405 16.0988 8.99999 16.0988Z" fill="#07ACFF"></path></g><path d="M25.1484 20V8.35938H28.2734L30.4922 14.3828C30.5651 14.6068 30.6484 14.8932 30.7422 15.2422C30.8411 15.5859 30.9427 15.9583 31.0469 16.3594C31.151 16.7552 31.2474 17.1432 31.3359 17.5234C31.4297 17.9036 31.5078 18.237 31.5703 18.5234H31.1406C31.2031 18.2474 31.2786 17.9219 31.3672 17.5469C31.4609 17.1667 31.5573 16.776 31.6562 16.375C31.7604 15.974 31.8594 15.599 31.9531 15.25C32.0521 14.8958 32.1406 14.6068 32.2188 14.3828L34.4062 8.35938H37.5391V20H35.4609V14.1172C35.4609 13.8672 35.4635 13.5677 35.4688 13.2188C35.474 12.8646 35.4818 12.487 35.4922 12.0859C35.5026 11.6797 35.513 11.2708 35.5234 10.8594C35.5339 10.4479 35.5417 10.0599 35.5469 9.69531H35.7031C35.599 10.1016 35.4844 10.5182 35.3594 10.9453C35.2396 11.3724 35.1198 11.7865 35 12.1875C34.8802 12.5885 34.7656 12.9557 34.6562 13.2891C34.5521 13.6224 34.4609 13.8984 34.3828 14.1172L32.2266 20H30.4609L28.2734 14.1172C28.1953 13.8984 28.1042 13.625 28 13.2969C27.8958 12.9688 27.7812 12.6068 27.6562 12.2109C27.5365 11.8099 27.4141 11.3958 27.2891 10.9688C27.1641 10.5365 27.0417 10.112 26.9219 9.69531H27.1094C27.1146 10.0391 27.1224 10.4141 27.1328 10.8203C27.1432 11.2266 27.151 11.6328 27.1562 12.0391C27.1667 12.4453 27.1745 12.8281 27.1797 13.1875C27.1901 13.5469 27.1953 13.8568 27.1953 14.1172V20H25.1484ZM43.5234 20.1797C42.6797 20.1797 41.9453 19.9922 41.3203 19.6172C40.6953 19.2422 40.2109 18.7188 39.8672 18.0469C39.5286 17.375 39.3594 16.5938 39.3594 15.7031C39.3594 14.8021 39.5286 14.0156 39.8672 13.3438C40.2109 12.6667 40.6953 12.1406 41.3203 11.7656C41.9453 11.3906 42.6797 11.2031 43.5234 11.2031C44.3672 11.2031 45.1016 11.3906 45.7266 11.7656C46.3516 12.1406 46.8333 12.6667 47.1719 13.3438C47.5156 14.0156 47.6875 14.8021 47.6875 15.7031C47.6875 16.5938 47.5156 17.375 47.1719 18.0469C46.8333 18.7188 46.3516 19.2422 45.7266 19.6172C45.1016 19.9922 44.3672 20.1797 43.5234 20.1797ZM43.5234 18.5312C43.9922 18.5312 44.3828 18.4062 44.6953 18.1562C45.0078 17.901 45.2422 17.5599 45.3984 17.1328C45.5547 16.7057 45.6328 16.2266 45.6328 15.6953C45.6328 15.1589 45.5547 14.6771 45.3984 14.25C45.2422 13.8177 45.0078 13.4766 44.6953 13.2266C44.3828 12.9766 43.9922 12.8516 43.5234 12.8516C43.0547 12.8516 42.6641 12.9766 42.3516 13.2266C42.0443 13.4766 41.8125 13.8151 41.6562 14.2422C41.5 14.6693 41.4219 15.1536 41.4219 15.6953C41.4219 16.2266 41.5 16.7057 41.6562 17.1328C41.8125 17.5599 42.0443 17.901 42.3516 18.1562C42.6641 18.4062 43.0547 18.5312 43.5234 18.5312ZM54.0078 20.1641C53.5234 20.1641 53.1172 20.0833 52.7891 19.9219C52.4609 19.7552 52.1927 19.5547 51.9844 19.3203C51.7812 19.0807 51.625 18.8516 51.5156 18.6328H51.3984V20H49.4141V8.35938H51.4375V12.7344H51.5156C51.6302 12.5156 51.7865 12.2891 51.9844 12.0547C52.1823 11.8151 52.4453 11.6146 52.7734 11.4531C53.1016 11.2865 53.5156 11.2031 54.0156 11.2031C54.6927 11.2031 55.3021 11.3776 55.8438 11.7266C56.3854 12.0703 56.8151 12.5755 57.1328 13.2422C57.4505 13.9089 57.6094 14.7188 57.6094 15.6719C57.6094 16.6198 57.4531 17.4271 57.1406 18.0938C56.8333 18.7604 56.4089 19.2734 55.8672 19.6328C55.3255 19.987 54.7057 20.1641 54.0078 20.1641ZM53.4688 18.4922C53.9167 18.4922 54.2943 18.3724 54.6016 18.1328C54.9089 17.888 55.1406 17.5521 55.2969 17.125C55.4583 16.6979 55.5391 16.2109 55.5391 15.6641C55.5391 15.1224 55.4609 14.6406 55.3047 14.2188C55.1484 13.7969 54.9167 13.4661 54.6094 13.2266C54.3021 12.987 53.9219 12.8672 53.4688 12.8672C53.026 12.8672 52.6484 12.9844 52.3359 13.2188C52.0286 13.4479 51.7943 13.7734 51.6328 14.1953C51.4714 14.612 51.3906 15.1016 51.3906 15.6641C51.3906 16.2266 51.4714 16.7214 51.6328 17.1484C51.7943 17.5703 52.0312 17.901 52.3438 18.1406C52.6562 18.375 53.0312 18.4922 53.4688 18.4922ZM59.3359 20V11.3203H61.3594V20H59.3359ZM60.3438 10.0859C60.0208 10.0859 59.7422 9.97656 59.5078 9.75781C59.2786 9.53906 59.1641 9.27604 59.1641 8.96875C59.1641 8.65625 59.2786 8.39323 59.5078 8.17969C59.7422 7.96615 60.0208 7.85938 60.3438 7.85938C60.6719 7.85938 60.9505 7.96615 61.1797 8.17969C61.4141 8.39323 61.5312 8.65625 61.5312 8.96875C61.5312 9.27604 61.4141 9.53906 61.1797 9.75781C60.9505 9.97656 60.6719 10.0859 60.3438 10.0859ZM65.5 8.35938V20H63.4766V8.35938H65.5ZM71.4531 20.1797C70.5833 20.1797 69.8307 19.9948 69.1953 19.625C68.5651 19.2552 68.0807 18.737 67.7422 18.0703C67.4036 17.3984 67.2344 16.612 67.2344 15.7109C67.2344 14.8203 67.401 14.0365 67.7344 13.3594C68.0729 12.6823 68.5495 12.1536 69.1641 11.7734C69.7786 11.3932 70.4974 11.2031 71.3203 11.2031C71.862 11.2031 72.3724 11.2917 72.8516 11.4688C73.3359 11.6406 73.763 11.9089 74.1328 12.2734C74.5026 12.6328 74.7917 13.0885 75 13.6406C75.2135 14.1927 75.3203 14.8464 75.3203 15.6016V16.2188H68.1719V14.8438H74.3047L73.3672 15.25C73.3672 14.7604 73.2891 14.3307 73.1328 13.9609C72.9766 13.5911 72.7474 13.3047 72.4453 13.1016C72.1484 12.8932 71.7786 12.7891 71.3359 12.7891C70.8932 12.7891 70.5156 12.8932 70.2031 13.1016C69.8906 13.3099 69.651 13.5911 69.4844 13.9453C69.3229 14.2943 69.2422 14.6849 69.2422 15.1172V16.0625C69.2422 16.6042 69.3333 17.0651 69.5156 17.4453C69.7031 17.8203 69.9635 18.1042 70.2969 18.2969C70.6354 18.4896 71.0286 18.5859 71.4766 18.5859C71.7786 18.5859 72.0521 18.5443 72.2969 18.4609C72.5417 18.3724 72.75 18.2448 72.9219 18.0781C73.099 17.9062 73.2318 17.6979 73.3203 17.4531L75.1875 17.7969C75.0521 18.2708 74.8125 18.6875 74.4688 19.0469C74.1302 19.401 73.7057 19.6797 73.1953 19.8828C72.6849 20.0807 72.1042 20.1797 71.4531 20.1797Z" fill="white"></path><defs><clipPath id="ton-mobile_svg__clip0_625_2112"><rect y="5" width="18" height="18" rx="4" fill="white"></rect></clipPath></defs></svg>