
    <svg fill="none" height="28" width="59" xmlns="http://www.w3.org/2000/svg"><path d="m9 23c4.9706 0 9-4.0294 9-9 0-4.97056-4.0294-9-9-9-4.97056 0-9 4.02944-9 9 0 4.9706 4.02944 9 9 9z" fill="#fff"></path><path d="m12.0727 10.0234h-6.14629c-1.13008 0-1.84635 1.2191-1.27782 2.2045l3.79325 6.5748c.24752.4293.86787.4293 1.11539 0l3.79397-6.5748c.5678-.9839-.1485-2.2045-1.2778-2.2045zm-3.63396 6.8076-.8261-1.5988-1.99331-3.5651c-.13149-.2282.03094-.5205.30631-.5205h2.51233v5.6852zm3.93946-5.1646-1.9926 3.5666-.82605 1.598v-5.6852h2.51235c.2753 0 .4378.2924.3063.5206z" fill="#232327"></path><g fill="#fff"><path d="m24.7217 20.7621v-12.52694h4.1286c3.5993 0 6.4399 2.77004 6.4399 6.26344 0 3.4935-2.8406 6.2635-6.4399 6.2635zm2.5583-2.3466h1.5703c2.3113 0 3.8639-1.7467 3.8639-3.9169 0-2.1701-1.5526-3.9168-3.8639-3.9168h-1.5703z"></path><path d="m48.1845 20.7621h-2.2055l-6.4222-8.169v8.169h-2.5583v-12.52694h2.2054l6.4223 8.16894v-8.16894h2.5583z"></path><path d="m49.8252 16.8805h2.5583c.1765 1.1292 1.1469 1.7291 2.2584 1.7291 1.0233 0 1.782-.4764 1.782-1.2703 0-.6705-.4764-1.1822-1.6761-1.5174l-1.3233-.3882c-1.9761-.5645-3.2641-1.7996-3.2817-3.7051-.0177-2.31132 1.6938-3.70516 4.1992-3.70516 2.6994 0 4.305 1.94079 4.3932 3.81106h-2.5407c-.2823-1.0587-1.1115-1.4468-1.8525-1.4468-.8999 0-1.6056.4234-1.6232 1.1645-.0177.7763.5469 1.1997 1.5702 1.4997l1.4645.4058c2.029.5646 3.2464 1.8525 3.2464 3.7933 0 2.1349-1.7291 3.7228-4.358 3.7228-2.9994 0-4.7108-2.029-4.8167-4.0933z"></path></g></svg>
