
<svg fill="none" height="28" width="79" xmlns="http://www.w3.org/2000/svg" xmlns:xlink="http://www.w3.org/1999/xlink"><clipPath id="tribute_svg__a"><path d="m0 5h18v18h-18z"></path></clipPath><g fill="#fff"><g clip-path="url(#tribute_svg__a)"><path d="m7.69939 7.37868c.3957-1.10621.59354-1.65932.89649-1.82127.26013-.13905.57945-.13905.83957 0 .30295.16195.5008.71506.89645 1.82127.7106 1.98635 1.5679 4.42822 2.1951 6.35842.6229 1.9171 1.3588 4.3761 1.9495 6.393.3352 1.1448.5028 1.7171.3534 2.026-.1289.2663-.385.4529-.678.4939-.3398.0476-.8353-.2887-1.8263-.9614l-2.50972-1.7038c-.28888-.1961-.43332-.2941-.5898-.3322-.13826-.0336-.28257-.0336-.42083 0-.15647.0381-.30091.1361-.58979.3322l-2.50978 1.7038c-.99097.6727-1.48645 1.009-1.82627.9614-.293-.041-.54905-.2276-.67794-.4939-.14948-.3089.01815-.8812.35339-2.026.5907-2.0169 1.32658-4.4759 1.9495-6.393.62716-1.9302 1.48451-4.37207 2.19503-6.35842z" opacity="0.65"></path><path d="m15.7178 11.3259c1.1744.0345 1.7615.0517 2.0092.2898.2126.2044.3113.5081.2594.7985-.0604.3381-.5253.6972-1.4551 1.4154-1.6696 1.2895-3.727 2.8595-5.3689 4.0524-1.63083 1.1849-3.74202 2.6446-5.47773 3.8297-.98509.6725-1.47764 1.0088-1.81758.9621-.29311-.0403-.54966-.2261-.67925-.4921-.1503-.3085.01648-.8837.35005-2.034l.8448-2.9134c.09724-.3354.14586-.503.13369-.6636-.01074-.1419-.05534-.2791-.13004-.4003-.08454-.137-.22243-.2441-.49821-.4582l-2.39593-1.8605c-.946017-.7346-1.4190274-1.1019-1.4787441-1.4397-.0514901-.2914.0468112-.5926.2602661-.7974.247559-.2377.843698-.2551 2.035988-.29 2.10078-.0615 4.66677-.1215 6.68255-.1215 2.02954 0 4.61684.0608 6.72554.1228z"></path></g><path d="m27.76 20v-9.248h-3.584v-2.032h9.664v2.032h-3.584v9.248zm5.9973 0v-5.968c0-.352-.0107-.7093-.032-1.072-.0107-.3627-.0374-.72-.08-1.072h2.32l.272 2.368h-.368c.1066-.576.2773-1.0507.512-1.424.2453-.3733.544-.6507.896-.832.3626-.1813.7733-.272 1.232-.272.2026 0 .3626.0107.48.032.1173.0107.2346.0373.352.08l-.016 2.128c-.224-.096-.416-.1547-.576-.176-.1494-.032-.3414-.048-.576-.048-.448 0-.8214.0853-1.12.256-.288.1707-.5067.4213-.656.752-.1387.3307-.208.7307-.208 1.2v4.048zm6.5941 0v-8.112h2.416v8.112zm-.096-9.44v-2.256h2.592v2.256zm9.4466 9.616c-.6507 0-1.232-.16-1.744-.48-.5013-.32-.8373-.7467-1.008-1.28h.176v1.584h-2.384v-11.776h2.416v5.184h-.208c.1813-.512.5227-.9173 1.024-1.216.512-.3093 1.088-.464 1.728-.464.7147 0 1.3387.1707 1.872.512s.9493.8267 1.248 1.456c.3093.6293.464 1.3867.464 2.272 0 .8747-.1547 1.6267-.464 2.256-.2987.6293-.72 1.1147-1.264 1.456-.5333.3307-1.152.496-1.856.496zm-.72-1.824c.544 0 .992-.192 1.344-.576s.528-.9867.528-1.808-.176-1.4293-.528-1.824-.8-.592-1.344-.592c-.5547 0-1.008.192-1.36.576-.3413.384-.512.9867-.512 1.808s.1707 1.4293.512 1.824c.352.3947.8053.592 1.36.592zm8.8134 1.824c-1.0134 0-1.7654-.2773-2.256-.832-.4907-.5653-.736-1.4187-.736-2.56v-4.896h2.416v4.896c0 .512.1013.8907.304 1.136.2133.2453.5386.368.976.368.48 0 .8746-.1653 1.184-.496.32-.3413.48-.7947.48-1.36v-4.544h2.416v8.112h-2.352v-1.552h.224c-.2454.544-.5974.9707-1.056 1.28-.448.2987-.9814.448-1.6.448zm10.5667 0c-1.056 0-1.8506-.2613-2.384-.784-.5333-.5333-.8-1.328-.8-2.384v-3.312h-1.536v-1.808h1.536v-1.984l2.416-.592v2.576h2.08v1.808h-2.08v3.184c0 .512.1067.864.32 1.056.2134.192.4854.288.816.288.2027 0 .368-.0107.496-.032.1387-.032.2827-.0747.432-.128v1.872c-.2026.0853-.416.144-.64.176-.224.0427-.4426.064-.656.064zm6.5537 0c-1.408 0-2.5067-.3787-3.296-1.136-.7894-.7573-1.184-1.7867-1.184-3.088 0-.8427.1653-1.5787.496-2.208.3413-.6293.8106-1.12 1.408-1.472.608-.3627 1.3173-.544 2.128-.544.8 0 1.4666.1707 2 .512.544.3413.9493.8213 1.216 1.44.2773.608.416 1.3173.416 2.128v.56h-5.68v-1.2h3.92l-.272.224c0-.672-.1387-1.1787-.416-1.52-.2667-.352-.656-.528-1.168-.528-.5654 0-1.0027.208-1.312.624-.2987.416-.448 1.0133-.448 1.792v.256c0 .7893.192 1.376.576 1.76.3946.384.96.576 1.696.576.4373 0 .848-.0533 1.232-.16.3946-.1173.768-.2987 1.12-.544l.672 1.6c-.4054.2987-.8747.528-1.408.688-.5227.16-1.088.24-1.696.24z"></path></g></svg>
