<svg width="103" height="40" viewBox="0 0 103 40" fill="none" xmlns="http://www.w3.org/2000/svg">
<path fill-rule="evenodd" clip-rule="evenodd" d="M39.8266 4.02286C40.3546 4.02286 40.8825 4.02286 41.4105 4.02286C43.3261 4.20397 45.0342 4.90272 46.5346 6.11911C45.9314 7.03169 45.2947 7.91678 44.6247 8.77436C43.3829 7.88926 42.001 7.36132 40.4788 7.19052C39.6251 7.15887 38.9884 7.50048 38.5689 8.21536C38.3963 8.97265 38.6603 9.51613 39.3608 9.84577C40.8417 10.3403 42.3323 10.8061 43.8328 11.2433C46.7455 12.4896 47.6616 14.6169 46.5812 17.6252C45.9322 18.9518 44.8918 19.8058 43.4601 20.1873C40.6879 20.8315 38.0792 20.4277 35.6341 18.9761C35.1564 18.6689 34.7217 18.3118 34.3298 17.9047C34.9849 17.0287 35.6837 16.1902 36.426 15.3892C37.7925 16.5533 39.3764 17.2055 41.1775 17.3457C41.7497 17.31 42.2932 17.1703 42.808 16.9264C43.5349 16.2819 43.5969 15.5987 42.9943 14.8768C42.6476 14.6413 42.275 14.455 41.8763 14.3178C40.8908 14.0093 39.8971 13.7298 38.895 13.4793C35.3573 12.4758 34.1927 10.2242 35.4012 6.72469C35.9607 5.69951 36.7836 4.96971 37.8701 4.53527C38.5167 4.29794 39.1689 4.12714 39.8266 4.02286Z" fill="#232328"/>
<path fill-rule="evenodd" clip-rule="evenodd" d="M23.9916 4.11538C25.1326 4.08539 26.2661 4.11645 27.3922 4.20854C29.6437 9.51904 31.8952 14.8295 34.1467 20.14C32.9057 20.2487 31.6635 20.2642 30.4201 20.1866C29.9082 19.0388 29.4424 17.8742 29.0226 16.6929C26.7857 16.6618 24.5497 16.6929 22.3146 16.786C21.8487 17.904 21.3829 19.022 20.9171 20.14C19.676 20.2487 18.4338 20.2642 17.1904 20.1866C19.4969 14.8441 21.764 9.48701 23.9916 4.11538ZM25.5754 8.68054C25.7416 8.78058 25.8503 8.93586 25.9015 9.14638C26.5043 10.5983 27.0788 12.0579 27.6251 13.5252C26.2893 13.5408 24.9539 13.5252 23.6189 13.4786C24.2843 11.884 24.9365 10.2846 25.5754 8.68054Z" fill="#232328"/>
<path d="M4.45883 4.82533L0 4V20.8013L4.45883 19.9171V4.82533Z" fill="#232328"/>
<path d="M11.5576 4.82533V19.9171L15.9604 20.8013V4L11.5576 4.82533Z" fill="#232328"/>
<path d="M5.78032 14.6114V9.95416H10.2607V14.6114H5.78032Z" fill="#232328"/>
<path fill-rule="evenodd" clip-rule="evenodd" d="M48.9572 4.30802C50.1373 4.30802 51.3174 4.30802 52.4975 4.30802C52.4975 6.38873 52.4975 8.46946 52.4975 10.5502C54.6093 10.5502 56.721 10.5502 58.8328 10.5502C58.8328 8.46946 58.8328 6.38873 58.8328 4.30802C60.044 4.30802 61.2552 4.30802 62.4663 4.30802C62.4663 9.61851 62.4663 14.929 62.4663 20.2395C61.2552 20.2395 60.044 20.2395 58.8328 20.2395C58.8328 18.1277 58.8328 16.016 58.8328 13.9042C56.721 13.9042 54.6093 13.9042 52.4975 13.9042C52.4975 16.016 52.4975 18.1277 52.4975 20.2395C51.3174 20.2395 50.1373 20.2395 48.9572 20.2395C48.9572 14.929 48.9572 9.61851 48.9572 4.30802Z" fill="#232328"/>
<path fill-rule="evenodd" clip-rule="evenodd" d="M68.1542 4.30704C69.8625 4.29152 71.5707 4.30705 73.2784 4.35362C70.8082 6.83936 68.3238 9.30827 65.8251 11.7604C64.9556 10.9529 64.1171 10.1144 63.3096 9.24487C64.9265 7.59699 66.5413 5.95105 68.1542 4.30704Z" fill="#232328"/>
<path fill-rule="evenodd" clip-rule="evenodd" d="M74.4846 4.30802C78.5218 4.30802 82.5591 4.30802 86.5963 4.30802C86.5963 5.3639 86.5963 6.4198 86.5963 7.47568C83.7392 7.47568 80.8821 7.47568 78.025 7.47568C78.025 8.53157 78.025 9.58746 78.025 10.6433C80.5405 10.6433 83.056 10.6433 85.5715 10.6433C85.5715 11.6992 85.5715 12.7551 85.5715 13.811C83.056 13.811 80.5405 13.811 78.025 13.811C78.025 14.898 78.025 15.9849 78.025 17.0718C80.9131 17.0718 83.8013 17.0718 86.6895 17.0718C86.6895 18.1277 86.6895 19.1837 86.6895 20.2395C82.6212 20.2395 78.5529 20.2395 74.4846 20.2395C74.4846 14.929 74.4846 9.61851 74.4846 4.30802Z" fill="#232328"/>
<path fill-rule="evenodd" clip-rule="evenodd" d="M102.992 4.30704C102.992 4.33809 102.992 4.36915 102.992 4.4002C100.936 7.54602 98.9025 10.7137 96.8892 13.9032C96.8426 16.0147 96.8268 18.1265 96.8426 20.2385C95.6622 20.2385 94.4824 20.2385 93.3023 20.2385C93.3179 18.1576 93.3023 16.0769 93.2557 13.9964C91.2216 10.7821 89.1874 7.56787 87.1533 4.35362C88.5508 4.29151 89.9483 4.29151 91.3458 4.35362C92.6153 6.41106 93.873 8.47625 95.1191 10.5492C96.3647 8.47625 97.6224 6.41106 98.8923 4.35362C100.258 4.30705 101.625 4.29152 102.992 4.30704Z" fill="#232328"/>
<path fill-rule="evenodd" clip-rule="evenodd" d="M65.7319 12.8692C68.2551 15.2525 70.7395 17.6904 73.1852 20.1828C71.5082 20.2449 69.8312 20.2449 68.1542 20.1828C66.5394 18.5679 64.9244 16.953 63.3096 15.3381C64.1359 14.5274 64.9433 13.7045 65.7319 12.8692Z" fill="#232328"/>
<path d="M62.748 28.4822L61.5553 29.6749C61.3142 29.3668 60.4737 28.8036 59.2521 28.8036C57.7252 28.8036 56.6805 30.2125 56.6805 31.8587C56.6805 33.5049 58.0467 34.4492 59.2521 34.4492C60.2165 34.4492 61.0737 34.188 61.3818 33.967V32.5406H59.2521V31.1342H62.9288V34.831C62.4801 35.2797 61.1166 35.9761 59.2521 35.9761C56.9216 35.9761 54.9527 34.4492 54.9527 31.8587C54.9527 29.0447 56.7608 27.2365 59.2521 27.2365C61.2452 27.2365 62.4131 28.067 62.748 28.4822Z" fill="#232328"/>
<path fill-rule="evenodd" clip-rule="evenodd" d="M90.9627 35.9018V27.5285H93.6379C94.4622 27.5285 95.3276 27.5972 95.9585 28.1278C96.5324 28.6105 97.0381 29.3589 97.0381 30.3617C97.0381 31.7002 96.3972 32.5079 95.757 32.9435C95.2256 33.3051 94.5561 33.3372 93.9134 33.3372H92.5814V35.9018H90.9627ZM92.5638 28.9875V31.7174H94.1672C94.4853 31.6732 95.193 31.3437 95.193 30.379C95.193 29.4142 94.4853 29.0494 94.1672 28.9875H92.5638Z" fill="#232328"/>
<path d="M49.2231 27.8357L53.2461 31.8587L49.2231 35.8817V27.8357Z" fill="#232328"/>
<path fill-rule="evenodd" clip-rule="evenodd" d="M64.9024 35.9018V27.5285H67.5775C68.4018 27.5285 69.2673 27.5972 69.8981 28.1278C70.472 28.6105 70.9778 29.3589 70.9778 30.3617C70.9778 31.7656 70.0652 32.5495 69.6089 32.766L71.3639 35.9018H69.6089L68.0821 33.3372H66.521V35.9018H64.9024ZM66.5426 28.9875V31.7174H68.146C68.4641 31.6732 69.1718 31.3437 69.1718 30.379C69.1718 29.4142 68.4641 29.0494 68.146 28.9875H66.5426Z" fill="#232328"/>
<path fill-rule="evenodd" clip-rule="evenodd" d="M76.6445 27.247C78.0607 27.247 80.9358 28.1996 80.9358 31.8386C80.9358 34.66 78.3595 35.83 76.9774 36H76.2534C74.8553 35.8518 72.3318 34.913 72.3318 31.8386C72.3318 28.1653 75.2284 27.247 76.6445 27.247ZM76.6407 28.8455C77.5434 28.8455 79.3762 29.4527 79.3762 31.7725C79.3762 33.7284 77.434 34.467 76.6407 34.467C75.8474 34.467 73.8914 33.9336 73.8914 31.7725C73.8914 29.4309 75.7379 28.8455 76.6407 28.8455Z" fill="#232328"/>
<path d="M86.1442 36C88.4597 35.8007 89.1384 34.1509 89.1818 33.2783V27.5459H87.4405V33.2783C87.4405 33.6481 86.9381 34.4803 85.6684 34.4803C84.3986 34.4803 84.0504 33.6481 84.0504 33.2783V27.5459H82.2936V33.2783C82.2936 34.1509 82.8882 35.8007 85.1935 36H86.1442Z" fill="#232328"/>
</svg>
