<svg fill="none" height="40" viewBox="0 0 91 40" width="91" xmlns="http://www.w3.org/2000/svg"><g fill="#232328"><path clip-rule="evenodd" d="m24.7713 13.2145c0 13.6999-10.9637 17.43-10.9637 17.43s-10.96385-3.7301-10.96385-17.43v-4.93136c0-.54051.4204-.97427.94758-1.01431 1.98856-.09342 6.71307-.4938 10.01627-2.26883 3.3098 1.77503 8.0276 2.17541 10.0162 2.27551.5272.03336.9475.46712.9475 1.00763zm-9.5757-.3603c1.6282.1535 2.9094.6673 3.0428 2.1621.1002 1.0943-.3603 1.7483-1.0943 2.1219 1.2078.2937 1.9552 1.0144 1.7951 2.6226-.2003 1.9886-1.6951 2.5157-3.817 2.6224l.0067 2.0888h-1.2746l.0067-2.0687c-.327-.0067-.6606-.0134-1.0077-.0201l-.0133 2.0888-1.2545-.0067-.0067-2.102c-.2937 0-2.29556.0067-2.29556.0067l.01336-1.5215 1.4147-.0067.0067-6.673h-1.61492v-1.328s2.27552 0 2.54912-.0066l-.0067-2.0754 1.2746-.0066v2.0486c.3403-.0067.6939-.0067 1.0276-.0067l-.0067-2.0219 1.2612-.0067zm-2.0434 8.0051c1.0299.0222 3.279.0707 3.2912-1.3721.012-1.47-2.1608-1.4348-3.2249-1.4177-.1194.002-.225.0036-.3118.0029l.0067 2.7827c.0689.0006.1491.0023.2388.0042zm-.0073-4.0507c.8516.0213 2.7257.0679 2.738-1.2451.006-1.3474-1.8315-1.3053-2.7041-1.2852-.0912.0021-.1719.0039-.2388.0039l.0067 2.5224c.057.0005.1236.0022.1982.004z" fill-rule="evenodd"/><path d="m44.1807 21.3115c0 .9262-.1808 1.6999-.5478 2.3268-.3671.6267-.8527 1.135-1.457 1.5133-.6043.3841-1.2932.6551-2.0668.8246-.7738.1694-1.5644.2484-2.3776.2484h-6.7315v-16.89648h6.7315c.6551 0 1.3215.06777 2.0049.2033.6832.13553 1.3045.36707 1.8635.69458.5591.3276 1.0108.7681 1.361 1.3271.3501.5591.5251 1.265.5251 2.1234 0 .9375-.254 1.7168-.7623 2.3267-.5082.6155-1.1803 1.0559-2.0047 1.3271v.0452c.4799.079.9261.2258 1.3497.4404.4235.2147.7906.4914 1.0955.8246.3106.333.559.7227.7397 1.1689.1865.4461.2768.9487.2768 1.5021zm-4.6307-7.0872c0-.5704-.2203-.9883-.6551-1.2537-.4405-.2654-1.0843-.3953-1.9483-.3953h-2.0048v3.4844h2.1968c.7624 0 1.3553-.1525 1.7789-.4631.4235-.3107.6325-.7681.6325-1.3723zm.5478 6.7089c0-.7002-.2599-1.1859-.7906-1.457-.5253-.271-1.2255-.4066-2.1008-.4066h-2.2703v3.8684h2.2928c.3162 0 .6494-.0283.9883-.0847.3445-.0565.6551-.1525.9318-.2993.2767-.1412.5026-.3446.6777-.6099.1864-.2598.2711-.5986.2711-1.0109z"/><path d="m49.6028 10.5444c0 .3049-.0621.5873-.1808.8471-.1185.2654-.2767.4913-.4799.6776-.1977.192-.4405.3445-.7172.4518-.2768.113-.5704.1694-.8697.1694-.6382 0-1.169-.2089-1.5982-.6325-.4292-.4235-.6437-.9261-.6437-1.5134 0-.288.0564-.5591.1694-.82451.1128-.26542.271-.49131.48-.67767.2089-.19201.4461-.34448.7171-.46308.2711-.11859.5648-.1807.881-.1807.305 0 .593.05647.8697.16941s.5196.25977.7173.45178c.1975.19201.3557.41789.4799.67767.1186.25977.1751.5421.1751.8471zm-4.2016 15.6823v-11.8874h3.9136v11.8874z"/><path d="m56.4155 17.2535v4.5517c0 .559.1073.9769.3219 1.2593s.5987.4179 1.1577.4179c.1921 0 .3953-.017.6099-.0452.2146-.0338.3953-.079.5365-.1412l.0451 2.8632c-.271.096-.6099.1807-1.0278.2484-.4122.0735-.8301.1073-1.2423.1073-.7963 0-1.4627-.1016-2.0047-.2992-.5423-.1977-.9771-.4857-1.299-.8641-.3275-.3727-.5591-.8244-.7059-1.3383-.1412-.5196-.2146-1.0956-.2146-1.7337v-5.0261h-1.9087v-2.914h1.8862v-3.1286h3.8457v3.1286h2.7955v2.914z"/><path d="m73.3783 26.2494c-1.1068.271-2.3096.4066-3.6198.4066-1.3553 0-2.5978-.2146-3.7384-.6438-1.1408-.4292-2.1178-1.0334-2.9366-1.8127-.8189-.7794-1.4626-1.7169-1.92-2.8067-.4631-1.09-.6947-2.3041-.6947-3.6425 0-1.3553.2371-2.5808.7059-3.6764.4687-1.0955 1.1181-2.033 1.9483-2.8066.8245-.7737 1.7958-1.36667 2.9139-1.77892 1.1126-.41225 2.3155-.62119 3.603-.62119 1.3384 0 2.5808.20329 3.7272.60989s2.0781.94872 2.7954 1.63772l-2.5808 2.9365c-.4009-.463-.9261-.8414-1.5756-1.135-.655-.2937-1.3948-.4405-2.2194-.4405-.7171 0-1.3778.1298-1.9821.3953-.6042.2597-1.1295.6268-1.5757 1.0955-.446.4688-.7906 1.0278-1.039 1.6717-.2485.6437-.3727 1.3496-.3727 2.112 0 .7793.1129 1.4966.3331 2.1516.2203.6551.5535 1.2142.9883 1.6829.4349.4687.977.8358 1.6208 1.0955.6438.2654 1.3779.3954 2.208.3954.4801 0 .9318-.034 1.361-.1074.4292-.0733.8302-.1863 1.1916-.3445v-3.0777h-3.2245v-3.2923h6.9743v8.9508c-.8189.4236-1.7845.7738-2.8915 1.0448z"/><path d="m91.0001 20.2406c0 .9714-.175 1.8524-.5252 2.6373-.35.7906-.8301 1.457-1.4343 2.0048-.6043.5478-1.3045.9769-2.1008 1.2763-.7963.3049-1.649.4517-2.5526.4517-.8923 0-1.7393-.1524-2.5412-.4517-.8019-.305-1.5022-.7285-2.1008-1.2763-.5987-.5478-1.0729-1.2198-1.4231-2.0048-.3501-.7906-.5252-1.6659-.5252-2.6373 0-.9713.1751-1.8466.5252-2.6259.3502-.7793.8244-1.4401 1.4231-1.9822.5986-.5421 1.2989-.9544 2.1008-1.2424s1.6489-.4292 2.5412-.4292c.9092 0 1.7563.1412 2.5526.4292s1.4965.7003 2.1008 1.2424c.6042.5421 1.0843 1.2029 1.4343 1.9822.3502.7793.5252 1.6546.5252 2.6259zm-3.7723 0c0-.3839-.0621-.7566-.192-1.1237-.1298-.3671-.3107-.689-.5479-.9657-.237-.2767-.5307-.5026-.8809-.6776-.3501-.1752-.7568-.2599-1.2198-.2599-.4631 0-.8696.0904-1.2197.2599-.3502.175-.6382.4009-.8698.6776-.2315.2767-.4065.5986-.5252.9657-.1185.3671-.1807.7398-.1807 1.1237 0 .384.0622.7568.1807 1.1238.1187.3672.2994.6947.5366.9883.2372.2937.5307.5309.8809.7059s.7568.2655 1.2198.2655c.4631 0 .8697-.0848 1.2198-.2655.3501-.175.6438-.4122.881-.7059.2372-.2936.4179-.6268.5365-.9883.1242-.367.1807-.7398.1807-1.1238z"/></g></svg>