<svg fill="none" height="40" viewBox="0 0 92 40" width="92" xmlns="http://www.w3.org/2000/svg" xmlns:xlink="http://www.w3.org/1999/xlink"><clipPath id="a"><path d="m0 6.51562h92v26.9655h-92z"/></clipPath><mask id="b" height="28" maskUnits="userSpaceOnUse" width="92" x="0" y="6"><path d="m92 6.51562h-92v26.96548h92z" fill="#fff"/></mask><g clip-path="url(#a)"><g fill="#232328" mask="url(#b)"><path d="m46.0287 19.8516h6.7612v.6281c-1.6021.2435-2.1612.4878-2.1612 2.6839v7.0404c-2.2987 1.4664-4.9754 2.2302-7.7018 2.1977-7.6273 0-12.5128-5.0529-12.5128-12.198 0-7.3203 5.5771-12.58255 13.3487-12.58255 3.2422 0 5.7516.66304 7.912 1.74245v3.9044h-.6623c-1.15-3.1391-3.5546-4.6063-7.3544-4.6063-6.7612 0-11.5056 4.7753-11.5056 11.3969 0 6.8675 4.6714 11.2938 11.1178 11.2938 2.0906 0 4.0424-.4196 5.7849-1.2928v-6.8603c0-2.2318-.487-2.4761-3.0313-2.7156zm8.7471 10.1779v-4.1122h.6623c1.3942 4.0749 3.9734 5.4375 6.8722 5.4375 2.8219 0 5.8174-1.7774 5.8174-5.0545 0-2.1255-1.2555-3.3461-4.1122-4.6714l-3.5555-1.6377c-2.9979-1.3935-4.8459-3.3104-4.8459-6.2053 0-3.3104 2.7545-6.16871 7.3204-6.16871 2.4047 0 4.9125.76693 6.4479 1.70755v3.87036h-.663c-1.1143-3.48967-3.4897-4.52467-5.9594-4.52467-3.3461 0-5.612 2.02237-5.612 4.95057 0 2.4745 1.5695 3.7982 3.9734 4.8784l3.5904 1.6377c3.2065 1.4649 4.949 3.1375 4.949 5.8912 0 3.6935-3.2755 6.3773-7.498 6.3773-2.6508.0035-5.2354-.8278-7.387-2.3761zm37.2235 1.9867v.1047h-2.1263l-11.8846-12.3724h-1.8821v8.5734c0 2.8584.5171 3.0329 2.1969 3.1709v.6281h-5.9617v-.6281c1.7432-.138 2.1977-.3125 2.1977-3.1709v-16.4156c0-2.61487-.3879-3.17242-2.1969-3.3818v-.62655h7.5265c5.1949 0 8.5061 2.23095 8.5061 5.81745 0 3.5213-3.1725 5.926-8.1912 6.1005zm-15.8938-13.3146h3.4508c4.5659 0 7.1102-1.8099 7.1102-4.9506 0-3.0312-2.5094-4.80854-7.0745-4.80854h-3.4912z"/><path d="m13.4447 15.8308v-8.85424h-.9954v8.85424c.3305-.0414.6649-.0414.9954 0zm-7.11018-7.05707-.83752.53773 4.7824 7.44724c.2571-.2118.5385-.3923.8383-.5377zm-5.01321 5.35817-.414.905 8.05238 3.6776c.10152-.3172.24031-.621.414-.9041l-8.05238-3.6793zm-1.32131 7.2189.142759.985 8.761411-1.261c-.08502-.3216-.13213-.6518-.14038-.9843zm9.48076.989-6.68904 5.7968.64638.751 6.6914-5.7968c-.24481-.2242-.46228-.4766-.64795-.7518zm-.67176 9.9978.9541.2808 2.4951-8.4941c-.3287-.0547-.6495-.1487-.9557-.28zm7.3322.2808.9557-.2808-2.4887-8.4933c-.3063.1308-.6271.2246-.9557.2792l2.4887 8.4941zm-.3695-9.5268 6.6898 5.7984.6527-.7526-6.6962-5.7976c-.1847.2755-.4017.5279-.6463.7518zm1.2293-2.016 8.7622 1.2602.1427-.985-8.7653-1.2611c-.008.3331-.054.6639-.1396.9859zm7.9968-6.0387-.4132-.905-8.0532 3.6777c.1745.2839.3133.5877.414.9049zm-4.5905-5.72623-.8375-.53694-4.7832 7.44727c.2995.1454.5807.3259.8375.5377zm-11.5983-1.66552.95569-.27997 1.64011 5.58662-.9557.2808zm5.6921 5.30505 1.6393-5.5866.9557.27996-1.6401 5.58664zm-11.71017-1.1064.65193-.7518 4.40173 3.8148-.65114.7519zm-2.79093 6.7866.141172-.985 5.764278.8288-.14197.985zm.984241 6.3147 5.300309-2.4459.41797.9057-5.30031 2.4459zm4.514349 5.7262 3.14862-4.899.83751.5377-3.14862 4.8998zm6.95551-3.4888h.9953v5.8221h-.9953zm3.9655-.8748.8383-.5393 3.1487 4.8997-.8376.5394zm2.8687-2.8758.414-.905 5.2971 2.419-.4132.9065zm.7098-4.9561 5.7643-.8288.1419.985-5.7642.8288zm-1.9391-3.5682 4.4033-3.8156.6511.7526-4.4017 3.8149z"/></g></g></svg>