<svg fill="none" height="40" viewBox="0 0 76 40" width="76" xmlns="http://www.w3.org/2000/svg"><g fill="#232328"><path d="m54.1641 23.7257v-19.53039h3.9257v19.53039z"/><path d="m8.41597 29.5226h-8.41597v-19.53041h8.07754c3.92576 0 6.21316 2.13951 6.21316 5.48621 0 2.1664-1.4691 3.5663-2.4859 4.0325 1.2137.5483 2.7674 1.7824 2.7674 4.3895 0 3.6471-2.5689 5.6222-6.15623 5.6222zm-.64915-16.1284h-3.84111v4.4986h3.84111c1.666 0 2.59818-.9054 2.59818-2.2501 0-1.3432-.93218-2.2485-2.59818-2.2485zm.25381 7.9275h-4.09492v4.8004h4.09492c1.77979 0 2.62587-1.0966 2.62587-2.4144 0-1.3163-.84765-2.386-2.62587-2.386z"/><path d="m26.5474 21.5129v8.0097h-3.898v-8.0097l-6.0439-11.52071h4.2641l3.7565 7.87221 3.6996-7.87221h4.2641z"/><path d="m43.7207 29.5226h-8.416v-19.53041h8.0776c3.9257 0 6.2131 2.13951 6.2131 5.48621 0 2.1664-1.4691 3.5663-2.4859 4.0325 1.2137.5483 2.7674 1.7824 2.7674 4.3895 0 3.6471-2.5689 5.6222-6.1562 5.6222zm-.6492-16.1284h-3.8411v4.4986h3.8411c1.666 0 2.5982-.9054 2.5982-2.2501 0-1.3432-.9322-2.2485-2.5982-2.2485zm.2538 7.9275h-4.0949v4.8004h4.0949c1.7798 0 2.6259-1.0966 2.6259-2.4144 0-1.3163-.8461-2.386-2.6259-2.386z"/><path d="m70.7454 13.3942v16.1299h-3.9257v-16.1299h-5.2533v-3.40201h14.4322v3.40201z"/></g></svg>