<svg fill="none" height="53" viewBox="0 0 90 53" width="90" xmlns="http://www.w3.org/2000/svg"><path clip-rule="evenodd" d="m36.1212 28.3297 3.6927-.2983-1.8633-4.8379zm11.9676-8.1401c.1209.1113.2444.2579.3709.44.1265.1823.2572.3723.3921.5703l4.8141 6.7353v-7.1899c0-.4672.1025-.826.3077-1.0763.0054-.0065.0114-.0122.0169-.0186l-5.9327.5133c.0102.0089.021.0168.031.0259zm-.031-.0259c-.0066-.0056-.0107-.0092-.0139-.0119.0058.005.0139.0119.0139.0119zm-14.7556-.6732 1.3086-.1159c.4144-.0368.6932-.3248.6932-.7158v-6.9848c0-.327.1319-.6431.383-.9283.2524-.2707.5657-.424.932-.4565l1.7596-.1558c.3524-.0312.6549.0701.9086.312.2547.2286.3826.5124.3826.8419v6.9847c0 .3911.2797.6296.6942.5929l1.3306-.1179c.0658-.0059.1297-.0261.19-.0574.3965-.2071.4803-.4706.4803-.6563v-6.9848c0-.3283.1316-.6443.3834-.9284.2524-.27081.5657-.42401.9316-.45642l1.7591-.15583c.3558-.03153.661.06973.9319.30999.2548.22866.3831.51236.3831.84186v6.9848c0 .391.2791.6296.6935.5929l1.3078-.1158c.4143-.0368.6932-.3248.6932-.7158v-6.9848c0-1.03998-.406-1.86108-1.2007-2.437-.7688-.57952-1.7146-.82285-2.8089-.72589l-1.759.15583c-1.0372.09189-1.93.4568-2.6624 1.08633-.7289-.50007-1.615-.7074-2.6389-.61666l-1.7596.15592c-1.0846.096-2.0353.50594-2.8314 1.22551-.7704.71468-1.1781 1.63046-1.1781 2.64776v6.9848c-.0001.3911.2784.6296.6927.5929zm35.2937-4.1002c.7678.5768 1.7123.8215 2.808.7244 1.5177-.1344 2.6673-.3806 3.5213-.7514.2954-.1316.4653-.3746.4653-.6672v-.8437c.0009-.5518-.4693-.6809-.802-.5698-.8051.2608-1.8459.445-3.1846.5635-.3658.0324-.6792-.065-.9319-.2927-.2535-.2288-.3826-.5173-.3826-.8608v-4.08179c0-.34196.1291-.65484.3822-.927.254-.27223.5674-.42552.9324-.45784 1.337-.11843 2.4076-.11852 3.1794-.00123.38.05965.8072-.1638.8072-.71117v-.84396c0-.27741-.1518-.48719-.4459-.58678-.8483-.21986-2.0068-.26129-3.5407-.12535-1.0947.09697-2.0477.51645-2.831 1.24557-.7704.71433-1.1781 1.63064-1.1781 2.64645v4.0818c-.0001 1.0325.4036 1.8589 1.201 2.459zm16.807-10.6984c-.7693-.57943-1.7144-.82276-2.809-.72589-1.3706.12141-2.4033.29712-3.0858.52845-.4869.18193-.5394.53782-.5394.682v.88242c0 .17115.0464.31227.1365.4193.1155.13551.2882.20015.4867.18255.0328-.00289.1126-.01664.1448-.0261.5287-.15767 1.4901-.29773 2.8573-.41888.3525-.03118.6554.07025.9091.31201.2552.22853.3832.51233.3832.84186v.58363l-3.0514.27031c-1.0966.09714-2.0486.51531-2.8318 1.24435-.7812.72629-1.1777 1.61019-1.1777 2.62769 0 1.031.4039 1.8581 1.2007 2.4592.7685.5766 1.7132.8213 2.8088.7243l5.0754-.4496c.3948-.035.6708-.3292.6708-.7138v-6.98486c0-1.01582-.4077-1.85978-1.1782-2.43894zm-1.5167 8.0481-3.0514.2703c-.3659.0325-.679-.065-.9315-.2927-.2546-.2287-.3835-.5171-.3835-.8608 0-.3298.1289-.6364.3835-.9084.2525-.2708.5656-.4241.9315-.4565l3.0514-.2704zm-21.0054 8.0031-1.6525.1334v8.2043l1.8969-.1532c.4158-.0337.7419-.071.978-.112.236-.041.4805-.1158.7334-.2242.253-.1083.4721-.2496.6577-.4241.8375-.7603 1.2562-1.9869 1.2562-3.68 0-1.1927-.1843-2.0712-.5522-2.6351-.3683-.564-.8221-.9051-1.3617-1.0238-.5393-.1185-1.1916-.1471-1.9558-.0853zm-35.1752-13.74593 2.1883-.19393c.4145-.03679.6933-.32444.6933-.71572v-.98139c0-.31499-.2147-.61377-.6933-.57129l-2.1883.19385c-.4785.04239-.6927.37919-.6927.69417v.98139c0 .39137.2783.62962.6927.59292zm23.087.6255c.1556-.08338.2842-.19699.3879-.32593l2.6467 2.66774-1.5786.52252c-.0503-.1498-.1408-.2847-.2743-.3852-.3905-.29412-.9774-.20039-1.3139.2102-.3354.4104-.2924.9816.0976 1.2759.3894.2939.9781.1989 1.3127-.2112.0925-.1123.1537-.2366.1888-.3651l1.5838.7216c-.0001.0307-.0047.0607-.0047.0914 0 3.3165 2.7489 5.7618 6.1398 5.4613 3.3912-.3004 6.1405-3.2328 6.1405-6.5493 0-3.31653-2.7494-5.76151-6.1405-5.46107-1.2709.11265-2.4519.59511-3.4313 1.32923l-1.3377-.90659c.0987-.1511.1625-.3248.1719-.5105.0262-.53633-.3956-.95406-.9432-.9326-.546.02348-1.0109.47782-1.0376 1.01529-.0258.53625.3959.95398.9427.93059.1493-.0056.2915-.04625.4218-.10984l.2924 1.79636-3.6171-1.2009c.024-.19709-.0027-.39803-.0919-.58048-.2609-.5323-.9328-.71625-1.5009-.41143-.5676.30483-.8164.98455-.5553 1.51677.2602.5323.9337.71694 1.5004.41124zm10.5488 5.70473c.4502-.0398.8138.2859.8138.7243 0 .4401-.3636.829-.8138.869-.4503.0398-.814-.2847-.814-.7248.0001-.4384.3637-.8285.814-.8685zm-2.8318.251c.4506-.04.8147.2857.8147.724 0 .4401-.364.8291-.8147.869-.4502.04-.8138-.2846-.8138-.7246 0-.4384.3635-.8286.8138-.8684zm6.2315 5.1392c-.021-.0007-.0302-.001-.0331-.0011.0046.0002.0196.0007.0331.0011zm-5.0531.4024c-.05.0153-.0985.0316-.1444.0498l.1444-.0125zm5.0736-.4017c-.006-.0002-.0089-.0003-.0137-.0005.0076.0003.0137.0005.0137.0005zm15.8411 8.5264c-.0051.012-.0108.0252-.017.0399.0034-.0081.0097-.023.017-.0399zm-1.9899 2.0893c-.7419.3898-1.6216.6258-2.6388.7079-1.2197.0985-2.2257-.0457-3.0183-.4324-.562-.279-1.0188-.6749-1.3701-1.188-.3513-.5132-.5269-1.0253-.5269-1.5365 0-.2969.1055-.5595.3161-.7882.2107-.2287.4791-.3562.8051-.3826.2642-.0213.4876.0431.6703.1933.1826.1502.3385.3822.468.696.1571.3722.3272.6801.5099.9236.1827.2437.4397.4359.7715.5767.3314.1409.7671.1895 1.3068.146.7419-.06 1.3446-.2777 1.8083-.6532.4639-.3755.6956-.816.6956-1.3219 0-.401-.125-.7166-.3751-.9467-.2502-.2299-.5733-.3948-.9696-.4947s-.9261-.1973-1.5892-.2922c-.8882-.1315-1.6314-.3094-2.23-.5331-.5986-.2238-1.0736-.5565-1.4248-.9981-.3514-.4417-.527-1.0114-.527-1.7096 0-.6651.1854-1.2709.5565-1.8176.3709-.5466.9076-.9872 1.6102-1.3215.1968-.0937.4045-.1761.6207-.2495l-9.3206.8066c.3412.0108.6564.0403.9436.0898.607.105 1.1578.3491 1.6524.7324 1.287.9735 1.9306 2.5596 1.9306 4.7583 0 .7256-.0647 1.3933-.1939 2.0027-.1293.6097-.3288 1.1659-.5985 1.6686-.2699.5028-.6156.9609-1.0371 1.3742-.3318.3183-.6942.5811-1.0875.7887-.3936.2078-.8165.3657-1.269.4735-.4525.108-.9625.1849-1.5301.2308l-3.2628.2636c-.4553.0367-.7983-.0028-1.0285-.119-.2306-.116-.3809-.2936-.4512-.5325-.0703-.2388-.1054-.5535-.1054-.9438v-8.8639c0-.5277.1209-.9194.3626-1.1753.1171-.1239.2699-.2224.4567-.2965l-3.9145.3388c.0087.0084.0181.0158.0266.0245.2078.217.3118.559.3118 1.0261v9.507c0 1.0609-.4497 1.6276-1.3489 1.7003-.2248.0182-.4272.0028-.607-.0458-.1799-.0487-.3486-.1354-.5058-.2601-.1575-.1247-.3036-.2736-.4383-.447-.135-.1733-.2699-.3505-.4048-.5321l-4.696-6.6624v7.0829c0 .4617-.1096.8197-.3288 1.0736-.2191.2541-.5003.3951-.843.4228-.3542.0285-.6381-.0681-.8516-.2901-.2137-.2218-.3204-.5607-.3204-1.017v-9.3257c0-.3957.045-.7098.1349-.9427.0766-.1837.1902-.3467.3393-.4896l-6.9369.6004c.0925.0748.1743.1594.245.2539.1434.1918.2641.4006.3625.6262.0983.2258.2234.5276.3751.9056l3.2291 7.5393c.253.5733.3795.9946.3795 1.264 0 .2803-.1196.5469-.3583.7999-.2389.2528-.5269.3929-.8642.4202-.1968.0159-.3654-.0049-.5058-.0622-.1406-.0575-.2585-.1411-.3541-.2518-.0957-.1104-.1981-.2835-.3078-.5194-.1096-.2355-.2037-.4438-.2824-.6244l-.5902-1.4694-5.0247.4057-.5902 1.5979c-.2306.6233-.4273 1.0473-.5901 1.272-.1632.2246-.4301.3522-.801.3821-.3149.0254-.593-.0648-.8347-.2707-.2417-.2058-.3624-.4517-.3624-.7375 0-.1649.028-.3376.0842-.5181.0561-.1804.1489-.4325.2782-.7562l3.1616-8.1051c.0898-.2325.1981-.512.3246-.8383.1265-.3262.2613-.5996.4047-.8202.0674-.1038.1453-.1991.2326-.2869l-8.1109.702c.0689.0197.1364.0409.2019.0648.3878.1281.7306.3285 1.0286.6012.2979.2728.524.5996.6787.98.1545.3806.2318.7907.2318 1.2304 0 .9015-.26 1.6427-.7799 2.2234-.52.5807-1.3082 1.0263-2.3648 1.3371.4439.195.8684.5017 1.2731.9196.4047.418.7657.8685 1.0834 1.3513.3174.4829.5649.922.7419 1.3171.1771.3953.2655.6699.2655.8236 0 .1595-.052.3218-.156.4869-.1041.165-.2459.3002-.4257.4054-.18.1052-.3878.1673-.6239.1864-.2811.0227-.5173-.0229-.7082-.1366-.1912-.1137-.3555-.2641-.4932-.4508-.1378-.1867-.3246-.463-.5607-.8287l-1.0032-1.5516c-.3598-.5701-.6815-1.0003-.9653-1.2907-.2839-.2904-.5721-.4815-.8642-.5734-.2923-.0919-.6605-.1198-1.1044-.084l-.8768.0709v3.8836c0 .5112-.1153.8971-.3457 1.1575-.2305.2606-.5311.4058-.9021.4357-.3991.0323-.7082-.0692-.9274-.3044-.2192-.235-.3287-.5972-.3287-1.0865v-9.3008c0-.5278.1207-.9195.3624-1.1755.0137-.0144.0296-.0274.0442-.0412l-4.9483.4282c.1188.042.2334.0902.3431.1463.2922.1468.5507.3418.7756.5846.2247.2431.3962.5179.5143.8243.118.3065.1771.6358.1771.9875 0 1.2094-.6184 2.1443-1.8548 2.8048 1.6242.3745 2.4365 1.293 2.4365 2.7551 0 .6761-.1771 1.2992-.5312 1.8692-.3541.5701-.8318 1.0086-1.4332 1.3155-.3765.1844-.8094.3279-1.2984.4305-.489.1028-1.0595.1804-1.7115.2331l-3.77705.305c-.5453.044-.93451-.0441-1.16765-.2645-.02246-.0212-.04358-.0443-.0639-.0684v.4787s.04672.0882.13764.1115c3.09776.7942 57.44536 14.7295 57.44536 14.7295l14.3976-22.1921v-.6805c-.0783.1838-.1702.3632-.2795.5374-.385.614-.9485 1.1155-1.6904 1.5052zm-62.4196-6.4127c-.0053-.0018-.008-.0028-.0122-.0043.0068.0024.0122.0043.0122.0043zm13.2724-14.24803-1.3311.11798c-.4786.0424-.6932.38033-.6932.69567v9.86858c0 .391.2789.6296.6932.5929l1.3311-.1179c.4139-.0367.6927-.3247.6927-.7158v-9.86858c0-.31524-.2142-.61534-.6927-.57285zm50.999 11.35333c-.1201 0-.1244.0837-.1244.0837.0001.0102.0009.0205.0009.0308 0 .2914-.1054.5624-.3161.813-.2108.2508-.4736.3887-.7883.4141-.2867.0231-.5046-.0293-.6534-.1576-.149-.128-.3107-.3445-.4848-.6493-.2249-.438-.4947-.7721-.8094-1.0024-.3149-.2301-.8207-.3172-1.5176-.2609-.6464.0523-1.1676.2333-1.5639.5427-.3963.3097-.5945.6596-.5945 1.0499 0 .2419.0675.4453.2025.6103.1348.1651.3203.3013.5564.4086.2361.1075.4749.1871.7166.239.2416.0519.6407.1242 1.1972.2166.6968.1033 1.328.2281 1.8928.3749.5649.1468 1.0454.3416 1.4416.5844.3963.2429.7053.5656.9273.9682.0125.0226.0233.0467.0351.0699v-4.2521c.0001-.0002-.0156-.0838-.118-.0838zm-67.7003.6292v-6.9847c0-1.0159-.4075-1.8598-1.1785-2.439-.7693-.5794-1.71492-.8227-2.80891-.7259-1.37072.1214-2.40341.2972-3.08644.5285-.48668.182-.53895.5378-.53895.682v.8824c0 .1712.04636.3123.13604.4193.11563.1355.28862.2002.48712.1826.03267-.0029.1125-.0167.14445-.0262.52954-.1577 1.49046-.2977 2.85778-.4188.35189-.0312.65528.0702.90954.312.25417.2286.38247.5123.38247.8418v.5838l-3.05105.2702c-1.09615.0971-2.04856.5153-2.83138 1.2442-.7821.7265-1.17866 1.6104-1.17866 2.6278 0 1.0309.40425 1.8588 1.20148 2.459.76805.5768 1.71286.8214 2.80856.7243l5.07535-.4496c.3953-.0349.6711-.3291.6711-.7137zm-2.6955-1.3755-3.05104.2703c-.36595.0324-.67963-.065-.93156-.2928-.25507-.2286-.3834-.5172-.3834-.8607 0-.3298.12833-.6365.3834-.9085.25193-.2707.56561-.4241.93156-.4565l3.05104-.2703zm13.17 7.8882 2.2425-.181c.6015-.0486 1.1074-.1403 1.5176-.2752.4103-.1348.7237-.3332.9401-.5954.2163-.262.3245-.6075.3245-1.0363 0-.3352-.0873-.6238-.2613-.8653-.1743-.2415-.416-.413-.7251-.5145-.2923-.0972-.8684-.1113-1.7284-.0419l-2.31.1865v3.3231zm-7.3094-6.1387 1.3086-.116c.4143-.0367.6923-.3246.6923-.7157v-6.9848c0-.3269.1317-.643.3834-.9285.2524-.2706.5656-.4239.9316-.4563l1.76-.156c.3524-.0311.6545.0704.9087.312.2545.2287.3829.5124.3829.8419v6.9848c0 .391.2788.6296.6932.593l1.3316-.1181c.3944-.0349.6703-.3292.6703-.7137v-6.9848c0-1.0399-.4063-1.8609-1.2008-2.4369-.7687-.57952-1.7059-.82355-2.7859-.7279l-1.76.15592c-1.0837.09609-2.035.50598-2.8309 1.22558-.7706.7147-1.1783 1.6305-1.1783 2.6478v6.9847c.0001.391.2789.6297.6933.593zm-.5398 8.7432c-.4383-.2394-1.0932-.324-1.9643-.2536l-2.6051.2104v3.5289l2.6894-.2171c1.6917-.1367 2.5377-.8013 2.5377-1.9943-.0001-.61-.2192-1.0348-.6577-1.2743zm-4.5695-1.7996 2.2932-.1851c.6239-.0503 1.1057-.147 1.4459-.29.34-.1428.6-.3836.7799-.7225.1404-.2423.2107-.5063.2107-.7921 0-.6102-.2221-.9975-.666-1.1625-.444-.1647-1.1213-.2104-2.0318-.1369l-2.0318.1641v3.125z" fill="#232328" fill-rule="evenodd"/></svg>