<svg fill="none" height="40" viewBox="0 0 150 40" width="150" xmlns="http://www.w3.org/2000/svg" xmlns:xlink="http://www.w3.org/1999/xlink"><clipPath id="a"><path d="m4 5h143v32.2031h-143z"/></clipPath><g clip-path="url(#a)"><g fill="#232328"><path d="m9.78838 14.3801c1.11232-1.0878 4.05132-4.64016 5.16362-6.01694 1.1369-1.43131 1.5322-2.06654 1.5322-2.38552 0-.21265-.0491-.34351-.5671-.4771-.2481-.0518-.3217-.13359-.3217-.26445s.0736-.21265.3217-.21265c.8642 0 1.4095.07906 2.4946.07906 1.085 0 2.6172-.07906 2.988-.07906.3953 0 .4444.07906.4444.23991 0 .10633-.0245.21265-.3217.23992-.5671.0518-.9379.13359-1.3332.29171-.8642.31898-1.4585.66249-2.7672 2.12106-1.1614 1.29772-4.3484 4.95646-4.9891 5.69796 1.3086 1.9357 5.5835 6.813 6.6685 7.9254 2.1729 2.2274 2.8899 2.6254 3.6805 2.8626.469.1336.5426.1336.8888.1854.3463.0272.4935.079.4935.2399 0 .1854-.1227.2399-.469.2399h-2.1237c-2.7918 0-3.656-.2917-5.0382-1.8293-1.903-2.0938-4.692-5.5671-6.74219-8.2962v2.4373c0 2.4401 0 4.5339.07361 5.6735.04907.7415.27258 1.325.88878 1.4313.3462.0518.8888.1063 1.2105.1063.1963 0 .3217.0791.3217.2127 0 .1854-.1963.2644-.469.2644-1.3822 0-2.9389-.079-3.55778-.079-.56707 0-2.12378.079-3.11343.079-.32171 0-.49346-.079-.49346-.2644 0-.1336.09814-.2127.39531-.2127.37078 0 .66794-.0518.88878-.1063.49346-.1063.61614-.6898.71701-1.4586.12269-1.1123.12269-3.2061.12269-5.6462v-4.6647c0-4.02944 0-4.77099-.04908-5.61887-.04907-.90241-.24809-1.32499-1.06325-1.51037-.19902-.0518-.61615-.07907-.96239-.07907-.27263 0-.41985-.0518-.41985-.23991 0-.18812.17176-.23992.54253-.23992 1.30863 0 2.86535.07907 3.45968.07907.59434 0 2.14834-.07907 2.98804-.07907.3462 0 .518.0518.518.23992 0 .18811-.1472.23991-.3463.23991-.248 0-.3953.02727-.6924.07907-.668.13358-.86427.58342-.91335 1.51037-.04907.84788-.04907 1.58943-.04907 5.61887v1.6713z"/><path d="m29.6054 14.5048c0-3.4379 0-4.0731-.0436-4.79557-.0436-.76882-.2535-1.15323-.717-1.26773-.2317-.06816-.5071-.08997-.7606-.08997-.21 0-.3381-.04635-.3381-.22628 0-.13632.169-.17994.5071-.17994.8015 0 2.1292.06816 2.7399.06816.5262 0 1.7721-.06816 2.5737-.06816.2726 0 .4416.04635.4416.17994 0 .17993-.1254.22628-.3381.22628-.2126 0-.3789.02181-.6325.06816-.5697.1145-.7388.49891-.7797 1.28954-.0436.72517-.0436 1.35767-.0436 4.79557v3.9831c0 2.1947 0 3.9832.0845 4.9564.0627.6107.2099 1.017.8424 1.1096.2945.0464.758.09 1.0742.09.2317 0 .3381.0682.3381.1799 0 .1582-.1691.2263-.4008.2263-1.3904 0-2.7208-.0681-3.2906-.0681-.4853 0-1.813.0681-2.6582.0681-.2753 0-.4226-.0681-.4226-.2263 0-.1145.0846-.1799.3381-.1799.3162 0 .5698-.0463.7579-.09.4226-.0899.548-.4743.6107-1.1314.1063-.9514.1063-2.7372.1063-4.9319v-3.9831z"/><path d="m39.0182 8.3235c0-.45256.0682-.76881.2944-.76881.2509 0 .4526.29444.8397.70066.2727.29444 3.7214 3.98315 7.0339 7.26285 1.5431 1.5377 4.7192 4.9101 5.1064 5.2727l-.2263-10.2727c-.0218-1.37953-.2263-1.81029-.7716-2.03657-.3407-.13631-.886-.13631-1.2023-.13631-.2726 0-.3626-.06816-.3626-.20448 0-.17993.2509-.20447.5889-.20447 1.1805 0 2.2683.06816 2.7454.06816.2508 0 1.1123-.06816 2.2247-.06816.2944 0 .5207.02181.5207.20447 0 .13632-.1363.20448-.4089.20448-.2263 0-.409 0-.6816.06815-.6353.17994-.8179.65704-.8397 1.92203-.09 4.7738-.1581 9.5039-.2508 14.2777 0 .4989-.09.7006-.2945.7006-.2508 0-.5207-.2481-.7715-.4989-1.4286-1.3577-4.3349-4.3212-6.6931-6.6522-2.4728-2.4427-5.06-5.3408-5.469-5.7688l.2481 9.572c.0464 1.7639.3408 2.3528.7934 2.5109.3844.1364.8179.1582 1.1805.1582.2481 0 .3844.0463.3844.1799 0 .1799-.2045.2263-.5207.2263-1.475 0-2.3828-.0682-2.8136-.0682-.2045 0-1.2704.0682-2.4509.0682-.2945 0-.4989-.0218-.4989-.2263 0-.1363.1363-.1799.3626-.1799.2944 0 .7033-.0218 1.0223-.1118.5889-.1799.6816-.837.7034-2.8054.0682-4.7955.1581-10.3845.2045-13.3943z"/><path d="m74.7189 23.5302c0 .6107-.0219.6571-.2999.8152-1.4941.7688-3.746 1.0169-5.5372 1.0169-5.6298 0-10.6162-2.6254-10.6162-8.8686 0-3.6206 1.9084-6.1533 3.9968-7.39922 2.2056-1.31135 4.2503-1.46948 6.1805-1.46948 1.584 0 3.6069.27263 4.0677.3626.4825.08997 1.2868.22628 1.8157.24809.2753.02181.3217.11451.3217.27263 0 .2481-.1609.88332-.1609 3.71048 0 .3626-.0681.4744-.2535.4744-.1609 0-.2072-.1145-.229-.2944-.0682-.5208-.1827-1.2432-.7825-1.8785-.6897-.72516-2.5273-1.76388-5.1227-1.76388-1.2623 0-2.9417.08996-4.5502 1.40408-1.2868 1.0632-2.1129 2.7617-2.1129 5.5425 0 4.8638 3.1489 8.5088 7.9963 8.5088.597 0 1.4013 0 1.952-.2481.3435-.1581.4362-.4525.4362-.8369v-2.1266c0-1.1314 0-1.9902-.0218-2.669-.0245-.7688-.229-1.1314-.9869-1.2896-.1827-.0463-.5753-.0681-.897-.0681-.2072 0-.3435-.0464-.3435-.1799 0-.18.1608-.2263.4826-.2263 1.1941 0 2.6417.0681 3.3315.0681.6897 0 1.9302-.0681 2.6881-.0681.2972 0 .4608.0463.4608.2263 0 .1363-.1391.1799-.2972.1799-.1827 0-.3435.0218-.6216.0681-.6216.1146-.8506.499-.8724 1.2896-.0245.6788-.0245 1.584-.0245 2.7154v2.4891z"/><path d="m79.456 24.7789c-.3953-.1581-.4716-.2726-.4716-.7688 0-1.2432.0981-2.6009.1227-2.9635.0245-.3381.0981-.5889.2971-.5889.2236 0 .2481.2045.2481.3844 0 .2945.0982.7688.2236 1.1532.5452 1.674 2.0065 2.2847 3.5442 2.2847 2.2301 0 3.3206-1.3795 3.3206-2.5791 0-1.1096-.3708-2.1483-2.4291-3.6205l-1.1396-.8152c-2.7263-1.9466-3.6669-3.5306-3.6669-5.3626 0-2.48915 2.2792-4.2776 5.7252-4.2776.9406 0 1.6849.08997 2.2792.17994.4199.06815.7443.13631 1.0169.20447.2236.04635.3463.1145.3463.27263 0 .29444-.0982.95148-.0982 2.71536 0 .4989-.0736.6789-.2726.6789-.1745 0-.2481-.1363-.2481-.4062 0-.2045-.1227-.9052-.6434-1.49405-.3708-.43075-1.0905-1.1096-2.7018-1.1096-1.8348 0-2.9498.97329-2.9498 2.33095 0 1.0415.5698 1.8321 2.6281 3.258l.6952.4743c2.999 2.0584 4.065 3.6206 4.065 5.7689 0 1.3113-.5453 2.8735-2.331 3.9368-1.2405.7252-2.6282.9269-3.9423.9269-1.4367 0-2.5518-.1581-3.6178-.5889z"/><path d="m93.6808 10.1645c-.2726-.83695-.5234-1.37949-.8424-1.60577-.2508-.15813-.7061-.20447-.9106-.20447-.229 0-.3653-.02181-.3653-.20447 0-.15813.1827-.20448.5016-.20448 1.186 0 2.4401.06816 2.6445.06816.2045 0 1.2078-.06816 2.5301-.06816.3189 0 .4798.06816.4798.20448 0 .17993-.1827.20447-.409.20447-.1826 0-.4116 0-.5698.08997-.2044.08996-.2508.24809-.2508.49891 0 .29444.229 1.06326.5017 2.08286.3871 1.494 2.5082 8.348 2.9416 9.7057l4.4688-11.87853c.229-.6325.387-.81516.569-.81516.251 0 .366.34078.663 1.06325l4.787 11.47224c.434-1.6057 2.258-7.5791 3.057-10.2263.158-.52074.229-.99512.229-1.31137 0-.36259-.205-.67885-1.094-.67885-.229 0-.387-.06815-.387-.20447 0-.15812.183-.20447.524-.20447 1.207 0 2.164.06816 2.371.06816.161 0 1.14-.06816 1.893-.06816.25 0 .411.04635.411.17993 0 .15813-.114.22629-.319.22629-.229 0-.548.02181-.799.1145-.548.20448-.798 1.10961-1.275 2.39914-1.05 2.8517-3.444 10.0464-4.559 13.4407-.251.7906-.365 1.0632-.662 1.0632-.229 0-.366-.2726-.706-1.1096l-4.766-11.4041c-.455 1.2214-3.487 9.2313-4.4685 11.3142-.4334.9269-.5479 1.1995-.8206 1.1995-.229 0-.319-.2481-.5234-.8369l-4.8338-14.3677z"/><path d="m120.091 19.1466c-.117 0-.161.0463-.207.1799l-1.252 3.2362c-.231.567-.349 1.1096-.349 1.3795 0 .4062.208.7006.927.7006h.349c.278 0 .349.0464.349.18 0 .1799-.139.2262-.395.2262-.742 0-1.739-.0681-2.459-.0681-.256 0-1.53.0681-2.737.0681-.303 0-.442-.0463-.442-.2262 0-.1364.139-.18.324-.18.21 0 .488-.0218.674-.0463 1.066-.1363 1.507-.9052 1.971-2.0366l5.821-14.20946c.278-.65703.441-.90513.648-.90513.186 0 .349.20448.581.7252.556 1.24319 4.267 10.47719 5.75 13.91509.881 2.0365 1.554 2.3528 2.039 2.4673.349.0681.695.0899.973.0899.186 0 .303.0464.303.18 0 .1799-.21.2262-1.066.2262s-2.691 0-4.545-.0463c-.417-.0218-.534-.0463-.534-.1799 0-.1145.093-.18.324-.2045.164-.0464.325-.2481.21-.5207l-1.853-4.7956c-.047-.1145-.118-.1581-.232-.1581h-5.172zm4.73-1.1314c.117 0 .139-.0682.117-.1363l-2.085-5.5889c-.071-.2045-.164-.2727-.257 0l-2.132 5.5671c-.024.0899 0 .1581.093.1581h4.267z"/><path d="m136.744 19.194c0-1.2213-.227-1.7203-.518-2.3746-.159-.3626-3.179-5.3408-3.967-6.5158-.565-.83701-1.129-1.40408-1.557-1.65218-.294-.15812-.676-.29444-.946-.29444-.18 0-.338-.04634-.338-.20447 0-.13631.158-.20447.428-.20447.406 0 2.097.06816 2.841.06816.474 0 1.398-.06816 2.413-.06816.226 0 .338.06816.338.20447 0 .13632-.158.15813-.497.2481-.201.04634-.316.22628-.316.40621 0 .17994.112.45257.27.76882.316.67886 3.471 6.13146 3.833 6.76396.227-.5425 3.067-5.5208 3.381-6.2214.226-.49894.316-.88335.316-1.17779 0-.22628-.09-.47437-.474-.56434-.202-.04635-.406-.08997-.406-.22628 0-.15813.111-.20448.384-.20448.744 0 1.464.06816 2.118.06816.496 0 1.985-.06816 2.413-.06816.248 0 .406.04635.406.17994 0 .15812-.18.22628-.428.22628-.226 0-.654.08997-.992.27263-.474.22628-.723.49892-1.219 1.10961-.744.90513-3.898 6.22143-4.305 7.19473-.338.8151-.338 1.5158-.338 2.2628v1.8566c0 .3626 0 1.3114.069 2.2629.046.657.248 1.1532.924 1.2431.316.0464.812.09 1.126.09.248 0 .36.0682.36.18 0 .1581-.18.2262-.475.2262-1.42 0-2.841-.0681-3.449-.0681-.564 0-1.984.0681-2.819.0681-.316 0-.496-.0463-.496-.2262 0-.1146.112-.18.36-.18.316 0 .586-.0463.788-.09.45-.0899.654-.5888.698-1.2431.068-.9515.068-1.9003.068-2.2629v-1.8566z"/><path d="m32.5705 35.844c-1.1996-1.0796-1.5158-2.47-1.5158-3.7132 0-.8588.2617-2.3528 1.434-3.4624.9106-.8425 2.0829-1.3168 3.8741-1.3168.7443 0 1.2132.0436 1.7639.1336.4689.0736.8261.1635 1.1996.2072.1254.0136.1799.0736.1799.1472 0 .1036-.0272.2808-.0545.7252-.0136.4144-.0136 1.1396-.0409 1.4067-.0136.1936-.0409.2972-.1527.2972-.0954 0-.1526-.1036-.1526-.2808-.0137-.3708-.1255-.8152-.4553-1.1696-.4008-.458-1.325-.7852-2.4401-.7852-1.006 0-1.6821.2509-2.2056.7389-.8397.8151-1.1041 1.982-1.1041 3.2252 0 2.9144 2.0284 4.4248 3.765 4.4248 1.0769 0 1.6821-.1173 2.1511-.6816.2072-.2372.3435-.5916.4007-.8588.0546-.2208.0955-.2672.1936-.2672.0818 0 .1254.09.1254.1936 0 .1636-.1527 1.2868-.2753 1.7448-.0546.2209-.1091.2808-.3163.3708-.4826.2072-1.3931.2808-2.1647.2808-1.6548 0-3.0752-.3408-4.2067-1.3604z"/><path d="m48.224 33.9154c-.0546 0-.0818.03-.1091.1036l-.608 1.614c-.109.3108-.1799.6216-.1799.7688 0 .3708.428.3844.6898.3844.1663 0 .2072.06.2072.1173 0 .1036-.0955.1336-.2209.1336-.428 0-.9242-.0437-1.3522-.0437-.1391 0-.8288.0437-1.4613.0437-.1527 0-.2208-.03-.2208-.1336 0-.0736.0681-.1336.1663-.1336.8696-.09 1.0605-.2672 1.3795-1.1233l2.9226-7.4128c.2481-.6952.3871-.976.537-.976.1091 0 .18.1336.3163.458.2345.7252 2.2765 5.7716 3.048 7.6637.4417 1.1096.7852 1.3031 1.0769 1.3604.1254.03.3299.03.4553.03.1527 0 .2072.06.2072.1336 0 .0899-.0545.1336-.2345.1336-.578 0-2.0284.0299-2.8953-.03-.1254-.0137-.2072-.0437-.2072-.1173 0-.0599.0545-.0899.1254-.1172.1254-.0436.2208-.09.139-.2672l-.9378-2.5c-.0136-.06-.0545-.09-.1118-.09zm2.4673-.7388c.0681 0 .0681-.03.0545-.0736l-1.0769-3.018c-.0409-.1172-.0818-.1472-.139 0l-1.0906 3.018c-.0136.0436 0 .0736.0546.0736h2.1919z"/><path d="m61.9437 31.1658c0-1.8048 0-2.2192-.0273-2.6336-.0273-.4008-.139-.608-.4962-.6816-.109-.03-.3026-.0436-.4825-.06-.1254 0-.2072-.0436-.2072-.1336 0-.0899.0818-.1336.2753-.1336.6216 0 1.4613.0437 1.7803.0437.5098 0 1.2132-.0437 1.7803-.0437 1.5294 0 2.0829.4581 2.3991.7852.2617.2672.5916.7688.5916 1.6412 0 1.6276-1.3522 2.8845-3.0616 2.8845-.0545 0-.2072 0-.2754-.0137-.0545-.0299-.1526-.0599-.1526-.1472 0-.0872.0954-.1172.3298-.1172.7443 0 1.6004-.7852 1.6004-2.042 0-.5044-.0136-1.3304-.6489-1.9248-.428-.4007-.9378-.458-1.2404-.458-.18 0-.3436.0136-.4417.0436-.0682.0137-.1091.09-.1091.2508v4.9565c0 1.1232 0 2.1156.0682 2.6499.0273.3708.1091.6353.4689.6816.18.0436.4281.0436.5916.06.1527 0 .2072.06.2072.1172 0 .09-.0954.1472-.2208.1472-.8124 0-1.6821-.0436-1.9575-.0436-.2344 0-1.1041.0436-1.5867.0436-.1527 0-.2345-.0436-.2345-.1336 0-.0599.0546-.1335.2072-.1335.1663-.0137.3027-.0137.4281-.0437.2344-.0599.3026-.3108.3435-.7088.0681-.518.0681-1.464.0681-2.6336v-2.2192z"/><path d="m75.7312 31.163c0-1.9247 0-2.2192-.0272-2.6336-.0273-.4144-.1527-.6216-.4144-.6815-.1254-.03-.2754-.0437-.4281-.06-.1254 0-.1935-.0436-.1935-.1472 0-.0736.0818-.1173.2753-.1173.4826 0 1.3114.0437 1.614.0437.2754 0 1.0905-.0437 1.5594-.0437.1663 0 .2345.0437.2345.1173 0 .1036-.0682.1472-.1936.1472-.1254.0136-.1799.0136-.3162.0436-.3299.06-.428.2808-.4553.7116-.0409.4007-.0409.6952-.0409 2.6199v2.2193c0 1.1832.0136 2.1456.0682 2.6772.0272.3408.1254.608.4825.6516.1799.0436.3435.0436.5235.06.1526 0 .2072.0736.2072.1335 0 .09-.0955.1336-.2345.1336-.8124 0-1.6003-.0436-1.8893-.0436-.2345 0-1.0606.0436-1.5458.0436-.1663 0-.2481-.0436-.2481-.1336 0-.0599.0545-.1335.2072-.1335.1663-.0137.2617-.0137.3735-.0437.2344-.0599.3435-.2808.3735-.6352.0681-.5316.0681-1.4804.0681-2.7072v-2.2192z"/><path d="m89.8694 33.3903c0 1.1233 0 2.1156.0545 2.6636.0409.3408.1091.6216.4826.6652.1663.03.4144.0437.5916.06.139 0 .2072.06.2072.1172 0 .09-.0818.1473-.2481.1473-.7988 0-1.6412-.0437-1.9438-.0437-.2754 0-1.1178.0437-1.5867.0437-.1663 0-.2481-.06-.2481-.1473 0-.0599.0545-.1172.2072-.1172.1663-.0136.3026-.0136.4144-.0436.2617-.06.3298-.3244.3735-.6952.0545-.5316.0545-1.4804.0545-2.65v-5.12c-.4553 0-1.3659 0-1.9166.0436-.7034.06-.9106.1173-1.0769.4444-.0818.1636-.109.2672-.1663.4144-.0273.09-.0682.1473-.139.1473-.0818 0-.1091-.0737-.1091-.2209.0136-.2672.2345-1.3168.2617-1.4804.0273-.1772.0682-.2671.1391-.2671.0954 0 .2072.1172.5098.1472.3299.0436.8261.0736 1.2405.0736h4.8828c.3871 0 .6488-.0436.8288-.0736.1799-.03.2753-.06.3435-.06.0818 0 .0954.0736.0954.2972 0 .2508-.0545 1.1696-.0545 1.494-.0137.1336-.0409.2072-.1254.2072-.0955 0-.1091-.0736-.1254-.2508 0-.0437-.0137-.1036-.0137-.1636-.0272-.3408-.3162-.6816-1.3386-.6952-.3299-.03-.8424-.0436-1.6003-.06v5.12z"/><path d="m100.548 33.9154c-.055 0-.085.03-.112.1036l-.6163 1.614c-.1118.3108-.1826.6216-.1826.7688 0 .3708.4339.3844.6979.3844.169 0 .21.06.21.1173 0 .1036-.098.1336-.224.1336-.4331 0-.9375-.0437-1.3682-.0437-.1391 0-.8397.0437-1.4832.0437-.1526 0-.2235-.03-.2235-.1336 0-.0736.0709-.1336.169-.1336.8806-.09 1.0769-.2672 1.3986-1.1233l2.9633-7.4128c.251-.6952.393-.976.545-.976.112 0 .183.1336.322.458.237.7252 2.307 5.7716 3.089 7.6637.447 1.1096.796 1.3031 1.091 1.3604.125.03.335.03.46.03.153 0 .21.06.21.1336 0 .0899-.054.1336-.237.1336-.586 0-2.056.0299-2.936-.03-.126-.0137-.21-.0437-.21-.1173 0-.0599.054-.0899.125-.1172.126-.0436.224-.09.139-.2672l-.951-2.5c-.014-.06-.057-.09-.112-.09h-2.767zm2.502-.7388c.071 0 .071-.03.055-.0736l-1.091-3.018c-.041-.1172-.084-.1472-.139 0l-1.104 3.018c-.013.0436 0 .0736.055.0736h2.222z"/><path d="m115.984 33.385c0 1.554 0 2.4264.248 2.65.194.2072.496.2971 1.461.2971.636 0 1.104-.0136 1.421-.3244.166-.1636.316-.5044.36-.8152.027-.1172.041-.2372.139-.2372s.111.1036.111.2509c0 .1635-.111 1.1695-.207 1.524-.082.2971-.139.3407-.744.3407-1.227 0-2.345-.0736-3.64-.0736-.496 0-1.006.0437-1.573.0437-.166 0-.261-.0437-.261-.1336 0-.06.068-.1173.207-.1336.152-.0137.289-.0137.387-.0436.289-.0737.373-.3108.414-.7988.055-.518.055-1.4641.055-2.5464v-2.2192c0-1.9248 0-2.2192-.027-2.62-.028-.4144-.126-.608-.497-.6952-.095-.03-.261-.0436-.414-.06-.139 0-.221-.0436-.221-.1336 0-.0899.096-.1336.289-.1336.578 0 1.325.0437 1.682.0437.262 0 1.254-.0437 1.723-.0437.194 0 .262.0437.262.1336 0 .09-.068.1336-.234.1336-.14.0136-.303.0136-.456.06-.33.06-.428.2672-.455.7116-.027.4007-.027.6815-.027 2.6336v2.1892z"/></g><path d="m123.141 32.1484h23.718" stroke="#232328" stroke-linecap="round" stroke-linejoin="round" stroke-width=".27263"/><path d="m4.14062 32.1484h23.57978" stroke="#232328" stroke-linecap="round" stroke-linejoin="round" stroke-width=".286262"/></g></svg>