<svg fill="none" height="40" viewBox="0 0 130 40" width="130" xmlns="http://www.w3.org/2000/svg"><g fill="#232328"><path clip-rule="evenodd" d="m4.52754 9.13571c2.89521-2.89714 6.82876-4.52633 10.92646-4.52633s8.0313 1.62919 10.9265 4.52633c2.8976 2.89719 4.5275 6.83069 4.5275 10.92769s-1.6299 8.0305-4.5275 10.9276c-2.8952 2.8972-6.8288 4.5264-10.9265 4.5264s-8.03125-1.6292-10.92646-4.5264c-2.89763-2.8971-4.52754-6.8306-4.52754-10.9276s1.62991-8.0305 4.52754-10.92769zm11.53566 6.04579c-1.6341.6802-4.9021 2.088-9.80424 4.2233-.79601.3166-1.21378.6263-1.25056.929-.06468.5112.5756.7128 1.44559.9868.11934.0376.243.0766.36976.1178.85906.279 2.01489.6056 2.61387.6185.54643.0118 1.15328-.2128 1.82318-.6736 4.5816-3.0913 6.9433-4.6539 7.0931-4.6875.1051-.0237.2496-.0536.3468.0339.0999.0872.0893.2527.0788.2971-.062.27-2.5676 2.5996-3.8714 3.8118-.4099.3812-.701.6518-.7601.7133-.132.1371-.2665.2668-.3958.3914-.7972.7686-1.3953 1.3451.0333 2.2864.6927.4563 1.2456.8329 1.7982 1.2093.5938.4045 1.1872.8086 1.9532 1.3111.197.1291.3851.2632.5683.3938.6963.4964 1.3219.9424 2.0956.8712.4492-.0412.9142-.4637 1.1481-1.7237.5569-2.9777 1.6524-9.4293 1.9046-12.0879.0236-.2328-.0053-.5309-.0263-.6618-.0237-.1308-.071-.3173-.2391-.4552-.2023-.1637-.5123-.1981-.6515-.1958-.6331.0113-1.6025.3486-6.2734 2.2908z" fill-rule="evenodd"/><path d="m41.6483 15.7971h-4.3827v-2.8049h11.7238v2.8049h-4.3827v12.8852h-2.9584z"/><path d="m54.009 29.033c-1.1103 0-2.111-.2557-3.0022-.767-.8911-.5113-1.5923-1.2126-2.1037-2.1037-.4967-.9058-.745-1.9211-.745-3.046 0-1.0665.2483-2.0526.745-2.9584.4967-.9203 1.1834-1.6508 2.0599-2.1913.8766-.5406 1.8554-.8108 2.9364-.8108 1.1542 0 2.1476.2483 2.9803.745s1.4609 1.1761 1.8846 2.038c.4382.8619.6574 1.8188.6574 2.8707 0 .336-.0219.6574-.0658.9642h-8.3929c.1461.8911.4967 1.5705 1.0519 2.038.5697.4528 1.249.6793 2.0379.6793.6574 0 1.2199-.1388 1.6874-.4164.4821-.2922.8619-.6793 1.1395-1.1614l2.3228 1.1395c-1.1395 1.9868-2.8706 2.9803-5.1935 2.9803zm2.6516-7.2973c-.0293-.3506-.1607-.6939-.3945-1.0299-.2191-.3506-.5332-.6355-.9423-.8546-.3944-.2338-.8619-.3507-1.4024-.3507-.6867 0-1.2783.2046-1.775.6136-.4821.3945-.8328.935-1.0519 1.6216z"/><path d="m61.2003 12.9922h2.8707v15.6901h-2.8707z"/><path d="m71.8066 29.033c-1.1102 0-2.111-.2557-3.0021-.767-.8912-.5113-1.5924-1.2126-2.1037-2.1037-.4967-.9058-.7451-1.9211-.7451-3.046 0-1.0665.2484-2.0526.7451-2.9584.4967-.9203 1.1833-1.6508 2.0599-2.1913.8765-.5406 1.8553-.8108 2.9364-.8108 1.1541 0 2.1475.2483 2.9802.745s1.4609 1.1761 1.8846 2.038c.4383.8619.6574 1.8188.6574 2.8707 0 .336-.0219.6574-.0657.9642h-8.3929c.146.8911.4967 1.5705 1.0518 2.038.5698.4528 1.2491.6793 2.038.6793.6574 0 1.2198-.1388 1.6873-.4164.4821-.2922.862-.6793 1.1395-1.1614l2.3229 1.1395c-1.1395 1.9868-2.8707 2.9803-5.1936 2.9803zm2.6516-7.2973c-.0292-.3506-.1607-.6939-.3944-1.0299-.2192-.3506-.5333-.6355-.9423-.8546-.3945-.2338-.862-.3507-1.4025-.3507-.6866 0-1.2783.2046-1.775.6136-.4821.3945-.8327.935-1.0519 1.6216z"/><path d="m84.471 33.7663c-1.4171 0-2.5931-.3214-3.5281-.9642-.935-.6282-1.5632-1.3879-1.8846-2.279l2.6954-1.0957c.2338.5551.5917.9934 1.0738 1.3148s1.0299.4821 1.6435.4821c.9058 0 1.6216-.2776 2.1475-.8327.5406-.5551.8109-1.344.8109-2.3667v-.8765h-.1754c-.3506.4967-.8108.8765-1.3805 1.1395-.5698.263-1.2199.3944-1.9503.3944-.9204 0-1.7823-.2337-2.5858-.7012-.7889-.4821-1.4244-1.1541-1.9065-2.0161-.4821-.8765-.7232-1.8918-.7232-3.0459 0-1.1542.2411-2.1622.7232-3.0241.4821-.8766 1.1176-1.5486 1.9065-2.0161.8035-.4821 1.6654-.7231 2.5858-.7231.7304 0 1.3805.1315 1.9503.3944.5697.263 1.0299.6428 1.3805 1.1395h.1754v-1.1833h2.7611v10.409c0 1.1979-.2338 2.2352-.7013 3.1117s-1.1322 1.5486-1.9941 2.0161c-.8619.4821-1.87.7231-3.0241.7231zm.0438-7.6917c.8035 0 1.4902-.2776 2.0599-.8327.5698-.5698.8547-1.344.8547-2.3228 0-1.0081-.2849-1.7824-.8547-2.3229-.5551-.5551-1.2418-.8327-2.0599-.8327s-1.512.2776-2.0818.8327c-.5697.5552-.8546 1.3294-.8546 2.3229 0 .9934.2849 1.7677.8546 2.3228.5698.5551 1.2637.8327 2.0818.8327z"/><path d="m92.5631 17.5064h2.6954v1.4901h.1753c.2776-.5259.7086-.9569 1.2929-1.2929.5844-.3506 1.2272-.5259 1.9284-.5259.5113 0 .9788.0803 1.4029.241v2.8707c-.3948-.1461-.7309-.2483-1.0084-.3068-.263-.073-.5479-.1095-.8547-.1095-.8473 0-1.5193.3068-2.016.9203-.4967.6136-.7451 1.3879-.7451 2.3229v5.566h-2.8707z"/><path d="m104.775 29.033c-1.184 0-2.155-.3434-2.915-1.03-.76-.7012-1.139-1.6143-1.139-2.7392 0-.745.197-1.4025.591-1.9722.395-.5698.935-1.008 1.622-1.3148s1.446-.4602 2.279-.4602c1.154 0 2.14.168 2.958.504v-.4821c0-.6136-.233-1.1103-.701-1.4901-.453-.3799-1.066-.5698-1.841-.5698-.526 0-1.037.1242-1.534.3726-.482.2337-.883.5478-1.205.9422l-1.841-1.4463c.541-.7012 1.22-1.2417 2.038-1.6216.818-.3798 1.71-.5697 2.674-.5697 1.709 0 3.009.3944 3.9 1.1833.892.7889 1.337 1.943 1.337 3.4624v6.8808h-2.827v-1.1395h-.175c-.336.4383-.782.7962-1.337 1.0738-.54.2776-1.168.4164-1.884.4164zm.679-2.2352c.833 0 1.49-.263 1.972-.7889.497-.5406.745-1.1687.745-1.8846-.745-.3506-1.526-.5259-2.344-.5259-1.491 0-2.236.5551-2.236 1.6654 0 .4529.161.8254.482 1.1176.322.2776.782.4164 1.381.4164z"/><path d="m112.774 17.5064h2.696v1.4025h.175c.35-.5406.818-.9642 1.402-1.271.599-.3214 1.264-.4821 1.994-.4821.789 0 1.476.1899 2.06.5697.585.3653 1.001.8327 1.249 1.4025.366-.5844.862-1.0592 1.491-1.4244.642-.3652 1.395-.5478 2.257-.5478 1.271 0 2.235.3944 2.892 1.1833.672.7743 1.008 1.8261 1.008 3.1556v7.1876h-2.848v-6.6617c0-.7012-.168-1.2418-.504-1.6216-.322-.3798-.775-.5698-1.359-.5698-.745 0-1.344.2995-1.797.8985-.438.5844-.657 1.3586-.657 2.3228v5.6318h-2.871v-6.6617c0-.7012-.175-1.2418-.526-1.6216-.336-.3798-.818-.5698-1.446-.5698-.702 0-1.271.2995-1.71.8985-.423.5844-.635 1.3586-.635 2.3228v5.6318h-2.871z"/></g></svg>