<svg fill="none" height="40" viewBox="0 0 171 40" width="171" xmlns="http://www.w3.org/2000/svg"><g fill="#232328"><path d="m30.85 25.5553v8.0989h-3.1554v-1.0679c-.0061-4.2325-.0303-8.465 0-12.6975.0242-3.6062 1.8697-6.3321 4.9283-7.4091 3.455-1.2132 7.4485-.242 9.539 2.3235 2.03 2.4929 2.3083 6.5348.6414 9.3907-2.2055 3.7787-7.6482 4.7892-11.0547 2.0512-.2179-.1755-.4417-.3419-.8986-.6958zm9.8204-5.7209c-.0151-2.859-2.148-4.9435-5.004-4.889-2.7894.0514-4.8012 2.1117-4.8194 4.9374-.0181 2.8499 2.142 5.0221 4.9465 4.9737 2.8892-.0515 4.892-2.1148 4.8799-5.0221z"/><path d="m14.5302 23.168c1.8788-3.6002 3.7757-7.1943 5.6816-10.8217h-3.6135l-.9396 1.797c-1.3705 2.5807-2.6805 5.1916-4.0903 7.748-1.0861 1.9695-3.05263 2.741-5.13711 2.1541-1.83034-.5144-3.16756-2.2237-3.22806-4.1206-.06354-1.9665 1.20409-3.7605 3.0889-4.3716 1.99371-.6475 4.07817.124 5.25807 1.9422.2057.3177.3994.6384.6807 1.0922l1.6636-3.0701c-.1475-.3228-.6456-.945-1.1432-1.4377-2.3174-2.0451-5.75426-2.5413-8.60719-1.0922-2.79846 1.4189-4.471487 4.5441-4.0902907 7.6391.3993487 3.2432 2.7198007 5.842 5.8510607 6.5529 3.5548.8078 6.93412-.7714 8.62532-4.0116z"/><path d="m46.2223 6h-.003-.0787v21.4256h3.1706v-8.2411c.118-2.7319 1.8969-4.3504 4.4806-4.2324 2.4899.1149 3.9814 1.6639 4.0479 4.3383.0575 2.3659.0424 4.7378.0061 7.1036v1.0316h3.2311v-.9408c-.0121-2.8197.0907-5.6514-.1604-8.4529-.3025-3.3612-2.502-5.5122-5.6544-5.9751-2.2146-.3268-4.1508.2753-6.0235 2.1147v-8.1715z"/><path d="m138.602 16.4352c1.939-1.8757 5.666-1.8697 7.134.3479.376.4537.66 1.0825.755 1.3402h3.175c-.621-3.9269-4.221-6.3109-8.647-5.8873-4.29.4084-7.149 3.7393-6.998 8.1533.146 4.2446 3.286 7.2518 7.773 7.4394 3.978.1664 7.451-2.4142 7.805-5.8541h-3.108c-.132.2637-.472.8845-.78 1.2586-1.53 2.2146-5.176 2.1964-7.127.2995-1.879-1.8243-1.87-5.2732.018-7.0975z"/><path d="m89.5133 12.2033c-4.4927-.1574-7.3789 2.0239-7.7571 6.2564-.0138.1552-.0262.3105-.0374.4659v8.4559h3.087.0303v-8.0686c.0968-2.6049 1.5913-4.1085 4.0207-4.1962 2.5352-.0908 4.1598 1.31 4.3777 3.9693v8.2562h.0665 3.101v-8.4166c-.2027-4.1357-2.7924-6.5801-6.8887-6.7223z"/><path d="m124.869 12.2033c-4.493-.1574-7.379 2.0239-7.757 6.2564-.014.1552-.027.3105-.038.4659v8.4559h3.087.031v-8.0686c.096-2.6049 1.591-4.1085 4.02-4.1962 2.535-.0908 4.16 1.31 4.378 3.9693v8.2562h.066 3.101v-8.4166c-.202-4.1357-2.792-6.5801-6.888-6.7223z"/><path d="m25.3313 27.3329h-2.9407v-21.30165h2.9407z"/><g clip-rule="evenodd" fill-rule="evenodd"><path d="m114.795 20.1036c.084-4.5592-3.331-7.9022-8.084-7.9083l-.003.003c-4.693-.006-8.0144 3.21-8.0205 7.7722-.006 4.5592 3.3155 7.8387 7.9625 7.866 4.635.0242 8.06-3.2251 8.145-7.7329zm-3.504-1.8034c-.616-1.911-2.284-3.1584-4.477-3.1915-2.877-.0423-4.974 2.027-4.971 4.9072.004 2.1162 1.128 3.7752 2.882 4.4843.591.2395 1.254.3711 1.968.3757 2.841.0181 4.832-1.9544 4.856-4.8164.005-.6307-.085-1.2212-.258-1.7593z"/><path d="m155.474 21.1715c.491 3.8846 5.585 4.6289 7.606 2.7773.261-.2391.664-.6432.87-.8561h3.314c-.974 3.4912-5.252 5.491-9.342 4.4956-4.269-1.0377-6.668-4.9555-5.745-9.3786.886-4.2385 4.986-6.7405 9.63-5.8753 4.087.7624 6.752 4.5411 6.093 8.8371zm.214-2.8873h8.815.003c-.704-2.1904-2.435-3.2946-4.783-3.1645-2.172.121-3.624 1.2343-4.035 3.1645z"/><path d="m76.3756 25.1984c-1.9846 2.269-4.3323 2.9618-7.0431 2.4172-4.0449-.8138-6.2957-4.0116-6.0023-8.4892.2541-3.8815 3.3279-6.8554 7.3396-7.0975 5.2641-.3176 8.7584 2.9709 8.7735 8.2563v5.7421 1.3887h-3.0677v-2.2146zm-9.9205-5.3153c.006 2.9195 1.9998 4.8799 4.9616 4.8739h-.003c2.8559-.0061 4.8496-1.9635 4.8829-4.7952.0363-2.8832-2.0088-4.9828-4.8769-5.0161-2.8227-.0333-4.9676 2.0996-4.9646 4.9374z"/></g><path d="m16.8954 21.0547-1.7665 3.2806 1.7665 2.9967h3.4068z"/></g></svg>