<svg width="179" height="14" viewBox="0 0 179 14" fill="none" xmlns="http://www.w3.org/2000/svg">
<g clip-path="url(#clip0_31639_29942)">
<path d="M41.5075 13.75H39.0606L37.5077 10.7355H28.425L26.8721 13.75H24.4253L31.557 0.256525H34.3692L41.5075 13.7435V13.75ZM36.418 8.71931L32.9794 2.18137L29.5017 8.71931H36.418ZM68.9577 13.75H66.1781L55.8753 2.69031V13.75H53.6372V0.256525H56.4103L66.7131 11.3227V0.256525H68.9511V13.7435L68.9577 13.75ZM96.2643 2.27272V0.256525H81.1331V2.26619H87.5797V4.28891H83.3646V6.29857H87.5797V13.737H89.8177V6.29857H94.0263V4.28891H89.8177V2.26619H96.2643V2.27272ZM122.566 2.27272H110.678V5.9919H118.579V8.0081H110.678V11.7403H122.579V13.75H108.446V0.256525H122.573V2.26619L122.566 2.27272ZM178.778 13.75H176.331L174.778 10.7355H165.689L164.136 13.75H161.689L168.828 0.256525H171.64L178.778 13.7435V13.75ZM173.695 8.71931L170.257 2.18137L166.779 8.71931H173.695ZM10.9971 0.25H-0.00390625V13.75H2.22761V8.59534H10.9971C13.3003 8.59534 15.173 6.71617 15.173 4.41288C15.173 2.10959 13.3069 0.25 10.9971 0.25ZM10.9971 6.57914H2.22761V2.26619H10.9971C12.1846 2.26619 13.1437 3.22535 13.1437 4.40636C13.1437 5.59389 12.1846 6.57262 10.9905 6.57262L10.9971 6.57914ZM150.056 13.75L146.48 8.52356C148.437 8.17774 149.932 6.47475 149.932 4.41288C149.938 2.10959 148.072 0.25 145.762 0.25H134.761V13.75H136.999V8.59534H143.811L147.459 13.75H150.062H150.056ZM136.993 2.26619H145.762C146.95 2.26619 147.909 3.22535 147.909 4.41288C147.909 5.60694 146.943 6.57914 145.762 6.57914H136.993V2.26619Z" fill="#232328"/>
</g>
<defs>
<clipPath id="clip0_31639_29942">
<rect width="178.782" height="13.5" fill="white" transform="translate(0 0.25)"/>
</clipPath>
</defs>
</svg>
