<svg fill="none" height="40" viewBox="0 0 85 40" width="85" xmlns="http://www.w3.org/2000/svg" xmlns:xlink="http://www.w3.org/1999/xlink"><clipPath id="a"><path d="m0 0h85v40h-85z"/></clipPath><clipPath id="b"><path d="m0 8.07031h85v23.868h-85z"/></clipPath><g clip-path="url(#a)"><g clip-path="url(#b)"><path d="m24.9287 8.07813h-24.361771c-.151181 0-.295343.05562-.40171.1555-.051772.04779-.0931583.10571-.1215821.17018-.0284239.06446-.04327756.13408-.0436369.20454v22.79595c0 .1404.0593926.2754.165759.3747.106367.0994.250529.1555.400631.1555h24.36231c.1506 0 .2943-.0561.4012-.1555.0518-.0477.0933-.1056.1218-.1701s.0435-.1341.0439-.2046v-22.79595c0-.14039-.0594-.27537-.1657-.37472-.1093-.1007-.2526-.15626-.4012-.1555zm-7.9316 15.37407c0 .1404-.0594.2753-.1663.3747-.109.1005-.2519.156-.4001.1555h-7.36577c-.1501 0-.29426-.0562-.40063-.1555-.05187-.0477-.09336-.1056-.12187-.1701-.02852-.0645-.04346-.1341-.04389-.2046v-6.8917c0-.1404.05939-.2754.16576-.3747.10637-.0999.25053-.1555.40063-.1555h7.36577c.1501 0 .2943.0556.4001.1555.052.0476.0936.1055.1222.17s.0436.1341.0441.2047zm58.9336-7.4209h-7.3657c-.3132 0-.5669.2376-.5669.5303v6.8917c0 .2926.2537.5302.5669.5302h7.3652c.3132 0 .5669-.2376.5669-.5302v-6.8917c0-.2932-.2537-.5303-.5669-.5303zm-8.4969-7.95317h-7.3652c-.3132 0-.5669.23757-.5669.53076v6.89171c0 .2926.2537.5302.5669.5302h7.3647c.3131 0 .5669-.2376.5669-.5302v-6.89171c0-.29319-.2538-.53022-.5669-.53022zm16.9998 0h-7.3658c-.3126 0-.5663.23757-.5663.53076v6.89171c0 .2926.2537.5302.5669.5302h7.3647c.3131 0 .5669-.2376.5669-.5302v-6.89171c0-.29319-.2538-.53022-.5669-.53022zm-16.9998 15.90477h-7.3652c-.3132 0-.5669.2376-.5669.5302v6.8923c0 .2926.2537.5297.5669.5297h7.3647c.3131 0 .5669-.2376.5669-.5297v-6.8923c0-.2926-.2532-.5302-.5664-.5302zm16.9998 0h-7.3658c-.3126 0-.5663.2376-.5663.5302v6.8923c0 .2926.2537.5297.5669.5297h7.3647c.3131 0 .5669-.2376.5669-.5297v-6.8923c0-.2926-.2538-.5302-.5669-.5302zm-29.7578-15.90477h-7.3647c-.3132 0-.567.23757-.567.53076v6.89171c0 .2926.2538.5302.567.5302h7.3647c.3131 0 .5669-.2376.5669-.5302v-6.89171c0-.29319-.2538-.53022-.5669-.53022zm0 15.90477h-7.3647c-.3132 0-.567.2376-.567.5302v6.8923c0 .2926.2538.5297.567.5297h7.3647c.3131 0 .5669-.2376.5669-.5297v-6.8923c0-.2926-.2538-.5302-.5669-.5302zm-7.9338-7.4284c0-.1403-.0605-.2753-.1663-.3752-.1092-.1004-.2523-.1558-.4007-.155h-7.9321v-7.41595c0-.14039-.0594-.27537-.1658-.37472-.109-.10062-.2522-.15618-.4006-.1555h-7.3652c-.1507 0-.2948.05562-.4012.1555-.0519.04774-.0933.10564-.1219.17011-.0285.06447-.0434.13412-.0438.20461v22.78405c0 .1404.0593.2754.1657.3747.1064.0994.2505.1555.4012.1555h7.3647c.1506 0 .2948-.0561.4011-.1555.1064-.0993.1658-.2343.1658-.3747v-7.4159h7.9316c.1507 0 .2948-.0562.4012-.1555.0518-.0478.0933-.1057.1218-.1702.0285-.0644.0435-.1341.0439-.2046z" fill="#232328"/></g></g></svg>