<svg fill="none" height="40" viewBox="0 0 170 40" width="170" xmlns="http://www.w3.org/2000/svg" xmlns:xlink="http://www.w3.org/1999/xlink"><clipPath id="a"><path d="m0 0h170v40h-170z"/></clipPath><clipPath id="b"><path d="m-.5 4.67969h170.5v30.6655h-170.5z"/></clipPath><g clip-path="url(#a)"><g clip-path="url(#b)" clip-rule="evenodd" fill="#232328" fill-rule="evenodd"><path d="m37.4607 31.2971h1.8399l.368 1.1653h.9199l-1.6559-4.9678h-.9813l-1.7173 4.9678h.8587zm1.5946-.7973h-1.3493l.6746-1.9625zm5.3971 1.9626h2.0239c1.7786 0 2.3306-1.1653 2.3306-2.5145 0-1.4106-.736-2.4533-2.3306-2.4533h-2.0239zm.9199-4.2318h1.1653c.8587 0 1.3493.6133 1.3493 1.6559 0 1.1653-.4906 1.7173-1.3493 1.7173h-1.1653zm8.3411 1.8399c.5519-.1226.9199-.4906.9199-1.2266 0-.9813-.7973-1.4106-1.7173-1.4106h-2.3305v4.9678h.9199v-2.0239h1.104c.736 0 .92.3066.9813 1.0426.0613.6133.1226.8586.184 1.0426h.9199c-.1226-.184-.1839-.4906-.2453-1.1039 0-.736-.3066-1.104-.7359-1.288zm-2.2693-.4906v-1.3493h1.4719c.4294 0 .7974.184.7974.6133 0 .4907-.3067.6746-.8587.6746 0 .0614-1.4106.0614-1.4106.0614zm7.789-.92 1.0427 3.7412h.9199l1.4106-4.9678h-.9199l-.9813 3.6185-.9813-3.6185h-.9813l-.9813 3.6185-.92-3.6185h-.9813l1.3493 4.9678h.9813c0 .0613 1.0426-3.7412 1.0426-3.7412zm11.4689 2.5146-.7973-.4293c-.184.5519-.552.9199-1.2879.9199-1.104 0-1.472-.6746-1.472-1.7786 0-1.0426.4293-1.7786 1.472-1.7786.7359 0 1.0426.4294 1.2266.9813l.7973-.4293c-.3067-.8586-.9813-1.3493-2.0239-1.3493-1.5946 0-2.4533 1.104-2.4533 2.5759 0 1.5333.7973 2.5759 2.3919 2.5759 1.288.0614 1.9013-.5519 2.1466-1.2879zm1.3493-1.2266c0 1.5332.9813 2.5759 2.5146 2.5759 1.5946 0 2.4532-1.104 2.4532-2.5759 0-1.472-.9813-2.5759-2.5146-2.5759-1.4719 0-2.4532 1.1039-2.4532 2.5759zm2.5146-1.7786c.9813 0 1.5332.6746 1.5332 1.7172 0 1.2266-.4906 1.7786-1.5332 1.7786-.9813 0-1.5333-.6746-1.5333-1.7786 0-.9813.552-1.7172 1.5333-1.7172zm9.1383-.736h-1.2266l-1.288 3.4345-1.2266-3.4345h-1.288v4.9678h.7973v-3.7412l1.3493 3.7412h.6133l1.3493-3.7412v3.7412h.8586v-4.9678zm4.6611 0h-2.5145v4.9678h.9199v-2.0853h1.5946c.9813 0 1.656-.4906 1.656-1.4719 0-.92-.7973-1.4106-1.656-1.4106zm-1.5946 2.1466v-1.288h1.5333c.4293 0 .736.184.736.6133 0 .4907-.3067.6747-.736.6747zm5.1518 1.7172h1.84l.3679 1.1653h.92l-1.6559-4.9678h-.9813l-1.7173 4.9678h.8586zm1.5946-.7973h-1.2879l.6746-1.9625zm6.3171.368-2.1466-3.4345h-1.0426v4.9678h.7973v-3.7412l2.3306 3.7412h.9201v-4.9678h-.7975zm4.1088-.3066v1.8399h.92v-1.9013l1.718-3.0665h-.982l-1.165 2.1466-1.227-2.1466h-1.042zm-62.6798-10.2423c2.8825 0 4.3545-1.3493 5.3358-3.0665l-2.5759-1.5333c-.4907 1.1653-1.4107 1.9626-2.7599 1.9626-1.7786 0-3.0052-1.1653-3.0052-3.4346 0-2.2079 1.1652-3.3732 2.9438-3.3732 1.3493 0 2.1466.6134 2.6986 1.9013l2.4532-1.4719c-.9199-1.71731-2.3919-2.94392-5.1518-2.94392-3.5572 0-6.0104 2.51452-6.0104 5.94912 0 3.4345 2.0853 6.0104 6.0718 6.0104zm13.0635 0c3.3732 0 5.5197-1.5333 5.5197-4.9678v-6.7464h-2.9438v6.5624c0 1.8399-.552 2.5146-2.5146 2.5146s-2.5146-.736-2.5146-2.5146v-6.62373h-2.9439v6.74643c-.1226 3.3732 1.7786 5.0291 5.3972 5.0291zm8.5863-.2453h2.6986v-7.7277l2.9438 7.6664h2.0853l2.9439-7.6664v7.6664h2.8825v-11.46893h-4.0478l-2.7599 7.54373-2.6986-7.54373h-4.0478zm16.7433 0h6.6851c3.2506 0 4.2318-1.3493 4.2318-3.3119 0-1.5333-.6746-2.2079-1.7172-2.6372 1.0426-.4907 1.4719-1.1653 1.4719-2.4533 0-1.4719-.9199-3.12783-4.0478-3.12783h-6.6851zm3.0053-4.7838h3.4958c1.2266 0 1.5946.368 1.5946 1.1653s-.3066 1.1652-1.4719 1.1652h-3.6185zm0-2.2693v-1.9626h3.4958c1.104 0 1.4106.3067 1.4106.9813 0 .7973-.368.9813-1.4106.9813zm10.7329 7.0531h10.1805v-2.3306h-7.1753v-2.4532h5.2133v-2.2693h-5.2133v-2.2079h6.9303v-2.26923h-9.9355zm15.7005-4.1705h2.576c1.472 0 2.024.4906 2.024 1.8399.061 1.4719.123 1.9626.245 2.3306h3.067v-.1227c-.123-.1226-.184-.4293-.245-.9199-.123-1.0427-.123-2.208-.43-3.0666-.184-.4906-.797-.9813-1.472-1.1039 1.104-.3067 2.086-1.104 2.086-2.8213 0-2.20788-1.288-3.37317-4.355-3.37317h-6.44v11.46887h3.006zm0-2.3919v-2.5146h3.251c1.165 0 1.594.368 1.594 1.1653 0 .8586-.429 1.3493-1.594 1.3493zm10.61 6.5624h8.096l.859-2.3919h-6.011v-9.13833h-2.944zm13.923-2.1466h4.722l.736 2.1466h3.128l-4.355-11.4689h-3.557l-4.354 11.4689h2.882zm3.863-2.2079h-3.127l1.533-4.4158zm6.808 4.3545h2.821l-.122-8.0957 4.906 8.0957h3.496v-11.53023h-2.821l.122 7.66633-4.599-7.66633h-3.742zm14.29 0h4.968c4.109 0 6.256-2.3919 6.256-5.8265 0-3.5571-2.392-5.6424-6.195-5.6424h-5.029zm3.005-2.4533v-6.6237h2.208c1.718 0 2.944.9813 2.944 3.2505 0 2.2693-1.165 3.3119-2.944 3.3119h-2.208z"/><path d="m2.31954 22.5917h9.93566l-6.56246 6.5624c1.7786 1.84 4.04785 3.1279 6.50106 3.6799v-6.4398h1.288l2.5759 2.5759-2.5759 2.5759h2.0852c.6133-.3066 1.1653-.6746 1.7173-1.1039v-3.9865h-1.2266v-1.288h-2.5759l2.5759-2.5759-2.5759-2.5759h3.8025v6.3784h1.2879l1.3493 1.3493c.6133-.7973 1.104-1.6559 1.472-2.5759h-2.7599l2.5759-2.5759-2.5759-2.5759h3.8025v-2.5759h-10.1809l10.1809-10.11959h-10.1809v6.37839h-1.288l-2.5759-2.5759 2.5759-2.57587h-2.5759v-1.22662h-1.28795v6.37839h1.28795v1.288h2.5759l-2.5759 2.5759 2.5759 2.5759h-3.80251v-6.4398h-1.28795l-2.5759-2.5759 2.5759-2.57587h-2.5759v-1.22662h-1.22662v6.37839h1.28795v1.288h2.5759l-2.5759 2.5759 2.5759 2.5759h-3.86385c0 .7973.06133 1.6559.24532 2.4532z"/><path d="m23.7257 20.0749c0 6.9304-4.9065 12.6955-11.4689 13.9835-6.56238-1.3493-11.46885-7.1144-11.46885-13.9835v-14.04476h22.93775zm-24.2257-15.33271v15.27141c0 3.6798 1.28795 7.1757 3.55719 9.9356 1.10396 1.3493 2.45324 2.5146 3.98651 3.3732 1.53328.92 3.1892 1.5946 4.9678 1.9013l.2453.0613.2454-.0613c1.7786-.368 3.4345-.9813 4.9678-1.9013 1.4719-.92 2.8212-2.0239 3.9865-3.3732 2.3305-2.7599 3.5572-6.3171 3.5572-9.9356v-15.27141z"/></g></g></svg>