<svg fill="none" height="40" viewBox="0 0 163 40" width="163" xmlns="http://www.w3.org/2000/svg" xmlns:xlink="http://www.w3.org/1999/xlink"><clipPath id="a"><path d="m0 0h163v40h-163z"/></clipPath><g clip-path="url(#a)" fill="#232328"><path d="m88.099 12.6621v5.4377h.0515c.902-1.1854 2.1777-1.7653 3.8528-1.7653.7474 0 1.4432.116 2.1133.3608.6571.2448 1.2499.6056 1.7653 1.0953.5154.4896.9148 1.0953 1.2112 1.8297.2964.7345.4381 1.585.4381 2.5385 0 1.0824-.1933 2.0874-.5927 3.0152-.3995.9278-1.018 1.6751-1.8555 2.2292-.8376.5541-1.8813.8376-3.1312.8376-1.804 0-3.0797-.5799-3.8528-1.7267h-.0515v1.4174h-3.4276v-15.2694zm-13.1304 3.3503c6.649 0 6.082 7.1386 6.082 7.1386h-9.1101c.3737 1.4174 1.5978 2.358 3.273 2.358 2.0359 0 3.1311-1.2241 3.1311-1.2241l1.9329 1.9715c-.9922.9922-2.3323 1.8942-5.0898 1.8942-4.2651 0-6.533-2.822-6.533-5.8114 0-2.9895 1.7009-6.3268 6.3139-6.3268zm82.8284-.0129c2.861 0 4.677 1.0953 4.677 1.0953l-1.172 2.5126c-3.814-1.9714-5.528-.5798-5.528.116s.683.7474 3.337 1.237c2.655.4897 3.892 1.5978 3.892 3.3889s-1.534 3.7626-5.283 3.7626c-3.75 0-5.464-1.1984-5.464-1.1984l1.134-2.4997c2.938 1.8555 6.275 1.2627 6.275.1546 0-.8376-1.108-1.0051-2.306-1.1468l-.516-.0645c-.232-.0257-.451-.0515-.67-.0902-1.52-.2448-3.775-1.0566-3.775-3.3889 0-2.3322 2.538-3.8785 5.399-3.8785zm-16.764-4.1363v9.2261l4.974-4.7806h4.059l-4.936 4.729 5.412 7.0484h-4.033l-3.698-4.8192-1.791 1.7138v3.1054h-3.325v-16.2229zm-11.919 4.059c2.358 0 4.419 1.1726 5.566 2.9379l-2.809 1.6493c-.528-1.005-1.559-1.6751-2.757-1.6751-1.727 0-3.131 1.4303-3.131 3.1827 0 1.7654 1.404 3.1828 3.131 3.1828 1.134 0 2.126-.6185 2.68-1.5463l2.822 1.6107c-1.16 1.7009-3.183 2.8348-5.502 2.8348-3.595 0-6.508-2.7317-6.508-6.0948 0-3.3503 2.913-6.082 6.508-6.082zm-15.45 0c3.595 0 6.507 2.7317 6.507 6.0948 0 3.3632-2.912 6.0949-6.507 6.0949s-6.507-2.7317-6.507-6.0949c-.013-3.3631 2.912-6.0948 6.507-6.0948zm-59.1061.3479v11.7258h-3.6079v-11.7258zm-6.8551-3.5564v2.9379h-8.0792v3.8914h7.1386v2.8993h-7.1386v5.5536h-3.608v-15.2822zm14.5607 5.0125s1.2757-1.9973 3.9172-1.688v3.2729s-2.8735-.7345-3.9172 2.2292v6.4556h-3.4405v-11.7258h3.2859l.1546 1.3787zm41.4395-5.9145v16.1069h-3.633v-16.1069zm-12.7563 7.087c-1.9973 0-2.9894 1.2113-2.9894 3.6467 0 .9148.2577 1.688.7731 2.3193.5154.6186 1.2886.9407 2.3194.9407.6958 0 1.2499-.1804 1.688-.5412.4252-.3608.7345-.7989.9149-1.3272.1804-.5154.2706-1.0437.2706-1.5592 0-.9921-.232-1.8297-.7087-2.4869-.4768-.6571-1.2371-.9922-2.2679-.9922zm22.7173-.0644c-1.727 0-3.131 1.4303-3.131 3.1827 0 1.7654 1.404 3.1828 3.131 3.1828s3.131-1.4303 3.131-3.1828c-.013-1.7653-1.404-3.1827-3.131-3.1827zm-38.6438-.2706c-1.7653 0-2.7318 1.0824-3.0668 2.4998h5.9016c-.0258-.3737-.6185-2.4998-2.8348-2.4998zm-22.2662-7.8215c1.1725 0 2.1261.8762 2.1261 1.9457s-.9536 1.9457-2.1261 1.9457c-1.1726 0-2.1262-.8762-2.1262-1.9457 0-1.0824.9536-1.9457 2.1262-1.9457z"/><path d="m23.9413 8c.5412 0 .9793.43811.9793.9793v22.6528c0 .5412-.4381.9793-.9793.9793h-22.961998c-.541193 0-.979302-.4381-.979302-.9793v-22.63992c0-.54119.438109-.97929.979302-.97929h22.961998zm-11.481 6.8422-6.9324 10.9399h13.852z"/></g></svg>