<svg fill="none" height="40" viewBox="0 0 195 40" width="195" xmlns="http://www.w3.org/2000/svg"><g fill="#232328"><path d="m2.23055 15.625-1.19688 1.1969c-.326421.3264-.59844.7072-.761651 1.1425-.163212.4352-.272019.8704-.272019 1.3057 0 .4352.108807.9248.272019 1.3056.163211.4353.43523.8161.761651 1.1425l9.57503 9.6839c.2176.2176.4897.4352.7617.5984v-11.7512z"/><path d="m23.882 15.625 1.1969 1.1969c.3264.3264.5984.7072.7616 1.1425.1633.4352.2721.8704.2721 1.3057 0 .4352-.1088.9248-.2721 1.3056-.1632.4353-.4352.8161-.7616 1.1425l-9.5751 9.6839c-.2176.2176-.4896.4352-.7616.5984v-11.7512z"/><path d="m21.5912 13.2444-5.9845-6.03885c-.3264-.32643-.7072-.59844-1.1424-.76166-.4353-.16321-.8705-.27201-1.3057-.27201-.4353 0-.9249.1088-1.3057.27201-.4352.16322-.8161.43523-1.1425.76166l-6.09321 6.03885 8.43261 4.1891z"/><g clip-rule="evenodd" fill-rule="evenodd"><path d="m127.438 12.8885c0-.3544.044-.7088.265-1.0189.178-.3101.443-.5759.798-.7088.31-.1329.709-.2215 1.063-.1329.354.0443.664.2215.93.443.266.2658.443.5759.532.9303s.044.7088-.089 1.0632-.354.6202-.664.8417-.665.3101-1.019.3101c-.222 0-.443-.0443-.665-.1329-.221-.0886-.398-.2215-.576-.3544-.177-.1772-.31-.3544-.398-.5316-.089-.2658-.133-.4873-.177-.7088zm.132 3.1896h3.323v11.9612h-3.323zm-88.468-3.987h-6.3793v15.9482h6.8223c3.5883 0 5.4933-1.8606 5.4933-4.43.0443-.9747-.3102-1.9493-.9747-2.6581s-1.5948-1.1518-2.5694-1.1961v-.1329c.7974-.1329 1.5505-.5316 2.0821-1.1518s.7974-1.4176.7974-2.2594c.0443-2.3922-1.7277-4.1199-5.2717-4.1199zm1.9049 4.6515c0 1.2405-1.0632 2.0379-2.3922 2.0379l-2.5695.0443v-3.9871h2.6138c1.5062-.0443 2.3479.6202 2.3479 1.9049zm.4873 6.5566c0 1.1961-.7531 1.9935-2.658 1.9935h-2.791v-4.2086h2.791c.3101-.0443.6645-.0443.9746.0443s.6202.2658.8417.443c.2658.2215.443.4873.5759.7531.1772.3101.2658.6203.2658.9747zm5.1832 4.7401h3.3668l-.0443-15.9482h-3.3225zm5.0946-5.9363c0-3.7212 2.2593-6.1578 5.8919-6.1578 3.6327 0 5.892 2.4809 5.892 6.1578 0 3.677-2.2593 6.1578-5.892 6.1578-3.6326 0-5.8919-2.4365-5.8919-6.1578zm8.4171 0c0-2.0821-.886-3.6326-2.4808-3.6326-1.5949 0-2.5252 1.5505-2.5252 3.6326 0 2.0822.8417 3.6327 2.5252 3.6327 1.6391 0 2.4808-1.5505 2.4808-3.6327zm10.4993-6.1578c-3.6327 0-5.892 2.5252-5.892 6.1578 0 3.6327 2.215 6.1578 5.892 6.1578 3.1453 0 5.1388-1.8606 5.316-4.6072h-3.1453c-.0443.5316-.2658 1.0632-.6645 1.4176s-.9303.5759-1.4619.5759c-1.5506 0-2.5695-1.3733-2.5695-3.5884 0-2.215 1.0189-3.544 2.5695-3.544.5316 0 1.0632.1772 1.4619.5759.3987.3544.6645.886.6645 1.4176h3.1453c-.1329-2.7466-2.215-4.563-5.316-4.563zm7.0438-3.8541h3.3225v8.5057h.1772l3.8542-4.5187h3.8098l-4.43 5.1832 4.6515 6.778h-3.8984l-3.2783-4.8287-.886 1.0189v3.8098h-3.3225zm17.2329 3.8541c-3.6326 0-5.892 2.5252-5.892 6.1578 0 3.6327 2.2151 6.1578 5.892 6.1578 3.1454 0 5.1389-1.8606 5.3159-4.6072h-3.1008c-.0443.5316-.2658 1.0632-.7088 1.4176-.3987.3544-.9304.5759-1.5063.5759-1.5505 0-2.5694-1.3733-2.5694-3.5884 0-2.215 1.0189-3.544 2.5694-3.544.5316 0 1.0632.1772 1.5063.5759.3987.3544.6645.886.7088 1.4176h3.1008c-.088-2.7466-2.2148-4.563-5.3159-4.563zm10.3659 12.0941h-3.322v-15.9482h3.234v6.1135h.133c.266-.7088.753-1.3291 1.417-1.7278.665-.3987 1.418-.6202 2.171-.5316 2.481 0 4.12 1.6835 4.12 4.5187v7.5754h-3.322v-7.0438c.044-.3101 0-.6202-.089-.886-.089-.3101-.222-.5316-.443-.7974-.222-.2215-.443-.3987-.753-.5316-.266-.1329-.576-.1772-.886-.1329-.31 0-.62.0443-.93.1772-.311.1329-.576.3101-.798.5316-.221.2215-.399.4873-.487.7974-.089.3101-.133.6202-.089.9303v6.9552zm13.867-6.9995c-2.348.2215-4.475 1.0189-4.475 3.677 0 2.3479 1.684 3.544 3.987 3.544.709.0443 1.418-.0886 2.038-.443s1.152-.8417 1.462-1.4619h.089v1.6834h3.145v-8.0627c0-2.8352-2.437-4.0757-5.095-4.0757-2.879 0-4.74 1.3734-5.227 3.5441l3.057.2658c.133-.443.443-.7974.841-1.0189.399-.2215.842-.3544 1.285-.3101 1.108 0 1.772.5759 1.772 1.5505.044.7974-.753.886-2.879 1.1075zm2.923 1.4176v1.3291c0 .3101-.088.6202-.221.886s-.31.5316-.576.7088c-.221.2215-.487.3544-.797.443s-.621.1329-.886.0886c-1.019 0-1.772-.4873-1.772-1.4176s.753-1.4176 1.949-1.5505c.797-.0443 1.595-.2216 2.303-.4874zm10.943 5.5819h3.367l-.045-6.9109c-.044-.3101 0-.6202.089-.9303.088-.3101.266-.5759.487-.7974.222-.2215.488-.3987.753-.5316.31-.1329.621-.1772.931-.1772s.62.0443.886.1329c.265.1329.531.3101.708.5316.222.2215.355.4873.443.7531.089.2658.133.5759.089.886v7.0438h3.323v-7.6197c0-2.7909-1.64-4.5187-4.12-4.5187-.753-.0443-1.507.1329-2.171.5759-.665.3987-1.152 1.019-1.418 1.7278h-.133v-2.1265h-3.145v11.9612z"/><path d="m180.64 16.0656h-3.145v11.9612h3.322v-7.1767c-.044-.2658.001-.5316.089-.7974.089-.2658.222-.4873.399-.7088s.399-.3544.664-.4873c.266-.133.532-.1773.798-.1773s.487.0443.753.133c.221.0886.443.2215.62.3987s.31.3987.399.6202c.088.2215.088.4873.088.7531v7.4425h3.234v-7.3096c-.044-.2658 0-.5316.089-.7974s.221-.4873.399-.6645c.177-.1772.398-.3544.664-.443.266-.0887.532-.133.798-.133.265 0 .531.0443.753.133.221.0886.443.2658.62.443s.31.3987.399.6645c.088.2658.088.4873.088.7531v7.3539h3.323v-7.9741c.044-.886-.266-1.7278-.798-2.4366-.531-.7088-1.284-1.1961-2.126-1.4176s-1.772-.1329-2.57.2215c-.797.3544-1.461.9746-1.86 1.772h-.177c-.222-.7088-.621-1.2847-1.241-1.7277-.576-.3987-1.329-.6202-2.038-.5759-.708-.0443-1.462.1772-2.037.5759-.621.3987-1.064 1.0189-1.285 1.6834h-.133v-2.0821zm-23.258-.1329c-3.632 0-5.847 2.5251-5.847 6.1578s2.17 6.1578 5.936 6.1578c3.145 0 5.183-1.8606 5.316-4.6073h-3.101c-.044.5316-.266 1.0632-.709 1.4177-.398.3544-.93.5759-1.506.5759-1.55 0-2.569-1.3734-2.569-3.5884s1.019-3.5441 2.569-3.5441c.532 0 1.063.1772 1.506.576.399.3544.665.886.709 1.4176h3.057c-.133-2.7467-2.215-4.563-5.361-4.563zm-10.499 9.126c-.354.3544-.531.7974-.531 1.2847 0 .2658.044.4873.132.7088.089.2215.222.443.399.6202s.399.3101.62.3987c.222.0886.488.1329.709.1329.488 0 .975-.1772 1.329-.5316.355-.3544.532-.8417.532-1.329s-.177-.9746-.532-1.329c-.354-.3545-.841-.5317-1.329-.5317-.487.0443-.974.2215-1.329.576zm17.1-2.9682c0-3.7213 2.26-6.1578 5.892-6.1578 3.633 0 5.892 2.4808 5.892 6.1578s-2.259 6.1578-5.892 6.1578c-3.632 0-5.892-2.4365-5.892-6.1578zm8.373 0c0-2.0821-.886-3.6327-2.481-3.6327s-2.525 1.5506-2.525 3.6327.886 3.6327 2.525 3.6327c1.684 0 2.481-1.5506 2.481-3.6327z"/></g></g></svg>