<svg fill="none" height="28" width="172" xmlns="http://www.w3.org/2000/svg" xmlns:xlink="http://www.w3.org/1999/xlink"><linearGradient id="ton-diamonds_svg__a" gradientUnits="userSpaceOnUse" x1="-2.05037" x2="20.0505" y1="3.35545" y2="25.4563"><stop offset="0" stop-color="#fff" stop-opacity="0.52"></stop><stop offset="1" stop-color="#fff" stop-opacity="0"></stop></linearGradient><clipPath id="ton-diamonds_svg__b"><path d="m0 5h18v18h-18z"></path></clipPath><g clip-path="url(#ton-diamonds_svg__b)"><g fill="#fff"><path d="m9.95215 21.7381 2.17585-7.7709 3.0164-.6703-2.9628 5.7101z" opacity="0.45"></path><path d="m12.1816 19.0117 5.7558-7.0508-2.7929 1.3407z" opacity="0.32"></path><path d="m8.04703 21.7399-2.17594-7.7711h6.25621l-2.17576 7.7708-.95239 1.1666z" opacity="0.63"></path><path d="m8.99922 13.9578-3.12813-3.575h6.25621z" opacity="0.82"></path><path d="m5.81837 19.0072-2.9629-5.7103 3.01638.6703 2.17587 7.7709z" opacity="0.45"></path><path d="m8.99922 13.9578-3.12813-3.575v3.575z" opacity="0.55"></path><path d="m.0625413 11.9609 5.7558487 7.051-2.9629-5.7103z" opacity="0.32"></path><path d="m9 13.9578 3.1281-3.575v3.575z" opacity="0.68"></path><path d="m5.87056 10.3938-2.90474-.8938 2.90474 4.4688z" opacity="0.7"></path><path d="m12.1289 10.3938 2.9047-.8938-2.9047 4.4688z" opacity="0.72"></path><path d="m5.87185 13.9688-2.90462-4.4688-.11176 3.7985z" opacity="0.39"></path><path d="m15.0336 9.5-2.9047 4.4688 3.0164-.6703z" opacity="0.51"></path><path d="m2.9672 9.50004-2.9047 2.45786 2.79299 1.3406zm12.1773 3.79846 2.7929-1.3406-2.9047-2.4579z" opacity="0.57"></path><path d="m15.1445 13.2961 2.793-1.3406-1.4523-1.2289z" opacity="0.24"></path><path d="m2.85549 13.2961-2.79299-1.3406 1.45235-1.2289z" opacity="0.4"></path><path d="m.0625413 11.9562 2.0109187-3.12808.8937.67041z" opacity="0.39"></path><path d="m17.9379 11.9562-2.0109-3.12808-.8938.67037z" opacity="0.39"></path><path d="m6.43123 7.26562h5.13907l2.4578.67028 1.8992.89379-.8938.67024-2.9047.89827h-6.25623l-2.90465-.8981-.8937-.67045 1.8992-.89375z" opacity="0.47"></path></g><path d="m9 22.9062 8.9374-10.9484-2.0108-3.12815-1.8993-.89375-2.4578-.67028h-5.13903l-2.45781.67028-1.8992.89375-2.01096 3.12815z" fill="url(#ton-diamonds_svg__a)"></path></g><path d="m27.76 20v-9.248h-3.584v-2.032h9.664v2.032h-3.584v9.248zm9.8533.176c-.864 0-1.616-.1707-2.256-.512-.6294-.352-1.12-.8427-1.472-1.472-.3414-.6293-.512-1.3813-.512-2.256 0-.864.1706-1.6107.512-2.24.352-.6293.8426-1.1147 1.472-1.456.64-.3413 1.392-.512 2.256-.512s1.616.1707 2.256.512 1.1306.8267 1.472 1.456c.352.6293.528 1.376.528 2.24 0 .8747-.176 1.6267-.528 2.256-.3414.6293-.832 1.12-1.472 1.472-.64.3413-1.392.512-2.256.512zm0-1.824c.5546 0 .992-.1973 1.312-.592.3306-.3947.496-1.0027.496-1.824s-.1654-1.424-.496-1.808c-.32-.384-.7574-.576-1.312-.576-.5547 0-.9974.192-1.328.576-.32.384-.48.9867-.48 1.808s.16 1.4293.48 1.824c.3306.3947.7733.592 1.328.592zm5.8162 1.648v-6c0-.3413-.0107-.688-.032-1.04-.0213-.3627-.0533-.72-.096-1.072h2.32l.176 1.504h-.192c.2667-.5333.6453-.944 1.136-1.232s1.0613-.432 1.712-.432c.9493 0 1.6587.2773 2.128.832.48.544.72 1.392.72 2.544v4.896h-2.416v-4.784c0-.5867-.1067-1.0027-.32-1.248s-.5333-.368-.96-.368c-.5333 0-.96.1707-1.28.512-.32.3307-.48.7787-.48 1.344v4.544zm14.4881 0v-11.28h4.304c1.312 0 2.4214.224 3.328.672.9067.448 1.5894 1.0933 2.048 1.936.4694.832.704 1.84.704 3.024 0 1.1733-.2346 2.1813-.704 3.024-.4586.8427-1.1413 1.4933-2.048 1.952-.9066.448-2.016.672-3.328.672zm2.496-2.048h1.664c1.2587 0 2.192-.2933 2.8-.88.6187-.5973.928-1.504.928-2.72 0-1.2267-.3093-2.1333-.928-2.72-.608-.5867-1.5413-.88-2.8-.88h-1.664zm9.6878 2.048v-8.112h2.416v8.112zm-.096-9.44v-2.256h2.592v2.256zm7.6386 9.616c-.704 0-1.3227-.1707-1.856-.512s-.9493-.8267-1.248-1.456-.448-1.3867-.448-2.272c0-.8747.1493-1.6267.448-2.256s.7147-1.1093 1.248-1.44c.5333-.3413 1.152-.512 1.856-.512.6507 0 1.232.16 1.744.48.5227.3093.864.7307 1.024 1.264h-.176l.192-1.584h2.32c-.032.352-.064.7093-.096 1.072-.0213.352-.032.6987-.032 1.04v6h-2.4l-.016-1.52h.192c-.1707.512-.512.9227-1.024 1.232s-1.088.464-1.728.464zm.736-1.824c.5547 0 1.0027-.1973 1.344-.592s.512-1.0027.512-1.824-.1707-1.424-.512-1.808-.7893-.576-1.344-.576-1.0027.192-1.344.576-.512.9867-.512 1.808.1653 1.4293.496 1.824c.3413.3947.7947.592 1.36.592zm6.2214 1.648v-6c0-.3413-.0107-.688-.032-1.04-.0214-.3627-.0534-.72-.096-1.072h2.32l.176 1.504h-.192c.2346-.512.5813-.9173 1.04-1.216.4586-.2987 1.0026-.448 1.632-.448.6186 0 1.136.1493 1.552.448.4266.288.7306.7413.912 1.36h-.256c.2346-.5547.608-.992 1.12-1.312.512-.3307 1.0933-.496 1.744-.496.9173 0 1.6.272 2.048.816s.672 1.3973.672 2.56v4.896h-2.416v-4.816c0-.5653-.0907-.9707-.272-1.216-.1814-.2453-.4747-.368-.88-.368-.48 0-.8587.1707-1.136.512-.2774.3413-.416.8107-.416 1.408v4.48h-2.416v-4.816c0-.5653-.0907-.9707-.272-1.216-.1814-.2453-.4747-.368-.88-.368-.48 0-.8587.1707-1.136.512-.2667.3413-.4.8107-.4 1.408v4.48zm18.4186.176c-.864 0-1.616-.1707-2.256-.512-.63-.352-1.1205-.8427-1.4725-1.472-.3413-.6293-.512-1.3813-.512-2.256 0-.864.1707-1.6107.512-2.24.352-.6293.8425-1.1147 1.4725-1.456.64-.3413 1.392-.512 2.256-.512s1.616.1707 2.256.512 1.13.8267 1.472 1.456c.352.6293.528 1.376.528 2.24 0 .8747-.176 1.6267-.528 2.256-.342.6293-.832 1.12-1.472 1.472-.64.3413-1.392.512-2.256.512zm0-1.824c.554 0 .992-.1973 1.312-.592.33-.3947.496-1.0027.496-1.824s-.166-1.424-.496-1.808c-.32-.384-.758-.576-1.312-.576-.555 0-.998.192-1.328.576-.32.384-.48.9867-.48 1.808s.16 1.4293.48 1.824c.33.3947.773.592 1.328.592zm5.816 1.648v-6c0-.3413-.011-.688-.032-1.04-.022-.3627-.054-.72-.096-1.072h2.32l.176 1.504h-.192c.266-.5333.645-.944 1.136-1.232.49-.288 1.061-.432 1.712-.432.949 0 1.658.2773 2.128.832.48.544.72 1.392.72 2.544v4.896h-2.416v-4.784c0-.5867-.107-1.0027-.32-1.248-.214-.2453-.534-.368-.96-.368-.534 0-.96.1707-1.28.512-.32.3307-.48.7787-.48 1.344v4.544zm12.996.176c-.704 0-1.328-.1707-1.872-.512-.533-.3413-.954-.8267-1.264-1.456-.298-.6293-.448-1.3867-.448-2.272 0-.8747.15-1.6267.448-2.256.299-.6293.72-1.1093 1.264-1.44.544-.3413 1.168-.512 1.872-.512.64 0 1.211.1547 1.712.464.512.2987.854.704 1.024 1.216h-.208v-5.184h2.416v11.776h-2.384v-1.584h.208c-.17.5333-.512.96-1.024 1.28s-1.093.48-1.744.48zm.72-1.824c.555 0 1.003-.1973 1.344-.592.342-.3947.512-1.0027.512-1.824s-.17-1.424-.512-1.808c-.341-.384-.789-.576-1.344-.576-.554 0-1.008.192-1.36.576-.341.384-.512.9867-.512 1.808s.171 1.4293.512 1.824c.352.3947.806.592 1.36.592zm9.198 1.824c-.726 0-1.387-.08-1.984-.24-.598-.16-1.104-.384-1.52-.672l.624-1.6c.416.256.874.4587 1.376.608.512.1493 1.018.224 1.52.224.469 0 .816-.0747 1.04-.224s.336-.352.336-.608c0-.2133-.075-.3787-.224-.496-.139-.1173-.358-.2027-.656-.256l-1.648-.304c-.694-.1387-1.222-.3947-1.584-.768-.363-.3733-.544-.8587-.544-1.456 0-.5227.138-.9813.416-1.376.288-.4053.698-.72 1.232-.944.533-.224 1.157-.336 1.872-.336.608 0 1.184.0747 1.728.224s1.008.3787 1.392.688l-.656 1.552c-.331-.2453-.715-.4427-1.152-.592-.427-.1493-.838-.224-1.232-.224-.512 0-.88.0853-1.104.256-.224.16-.336.368-.336.624 0 .192.064.352.192.48.138.128.346.224.624.288l1.664.304c.714.128 1.258.368 1.632.72.373.352.56.8373.56 1.456 0 .5653-.15 1.0453-.448 1.44-.299.3947-.72.6987-1.264.912-.534.2133-1.152.32-1.856.32z" fill="#fff"></path></svg>