<svg fill="none" height="28" width="172" xmlns="http://www.w3.org/2000/svg" xmlns:xlink="http://www.w3.org/1999/xlink"><clipPath id="collectibles-logo_svg__a"><path d="m1 6h17v17h-17z"></path></clipPath><g clip-path="url(#collectibles-logo_svg__a)"><path clip-rule="evenodd" d="m9.42494 6c0 4.653-3.77198 8.4249-8.42494 8.4249 0-4.65293 3.77197-8.4249 8.42494-8.4249zm0 16.8499c-4.65297 0-8.42494-3.772-8.42494-8.425 4.65296 0 8.42494 3.772 8.42494 8.425zm8.42496-8.425c0 4.653-3.772 8.425-8.42496 8.425 0-4.653 3.77196-8.425 8.42496-8.425zm-.7021-7.72282c0 3.87742-3.1433 7.02082-7.0208 7.02082 0-3.87751 3.1433-7.02082 7.0208-7.02082z" fill="#fff" fill-rule="evenodd"></path></g><path d="m30.736 20.176c-1.2907 0-2.3787-.2347-3.264-.704-.8747-.48-1.536-1.152-1.984-2.016-.448-.8747-.672-1.8933-.672-3.056 0-1.1947.24-2.2293.72-3.104.4907-.8747 1.1947-1.552 2.112-2.032s2.016-.72 3.296-.72c.8213 0 1.5413.10667 2.16.32.6293.20267 1.1787.496 1.648.88l-.8 1.936c-.3413-.2453-.6613-.4373-.96-.576-.2987-.1493-.608-.2507-.928-.304-.32-.064-.688-.096-1.104-.096-1.1733 0-2.0587.32-2.656.96-.5867.6293-.88 1.5467-.88 2.752 0 1.1947.2773 2.1013.832 2.72s1.424.928 2.608.928c.3947 0 .8-.0373 1.216-.112s.8267-.1867 1.232-.336l-.448.96v-3.04h-2.48v-1.776h4.544v5.536c-.5653.2773-1.2213.496-1.968.656-.736.1493-1.4773.224-2.224.224zm10.2579 0c-1.408 0-2.5067-.3787-3.296-1.136-.7894-.7573-1.184-1.7867-1.184-3.088 0-.8427.1653-1.5787.496-2.208.3413-.6293.8106-1.12 1.408-1.472.608-.3627 1.3173-.544 2.128-.544.8 0 1.4666.1707 2 .512.544.3413.9493.8213 1.216 1.44.2773.608.416 1.3173.416 2.128v.56h-5.68v-1.2h3.92l-.272.224c0-.672-.1387-1.1787-.416-1.52-.2667-.352-.656-.528-1.168-.528-.5654 0-1.0027.208-1.312.624-.2987.416-.448 1.0133-.448 1.792v.256c0 .7893.192 1.376.576 1.76.3946.384.96.576 1.696.576.4373 0 .848-.0533 1.232-.16.3946-.1173.768-.2987 1.12-.544l.672 1.6c-.4054.2987-.8747.528-1.408.688-.5227.16-1.088.24-1.696.24zm8.462 0c-1.056 0-1.8507-.2613-2.384-.784-.5334-.5333-.8-1.328-.8-2.384v-3.312h-1.536v-1.808h1.536v-1.984l2.416-.592v2.576h2.08v1.808h-2.08v3.184c0 .512.1066.864.32 1.056.2133.192.4853.288.816.288.2026 0 .368-.0107.496-.032.1386-.032.2826-.0747.432-.128v1.872c-.2027.0853-.416.144-.64.176-.224.0427-.4427.064-.656.064zm6.3296 3.408c-.7787 0-1.472-.08-2.08-.24-.608-.1493-1.152-.3787-1.632-.688l.464-1.728c.2987.192.6133.3467.944.464.3413.128.688.2187 1.04.272.3627.064.72.096 1.072.096.7147 0 1.248-.1707 1.6-.512s.528-.8267.528-1.456v-1.68h.16c-.1707.512-.512.9227-1.024 1.232s-1.088.464-1.728.464c-.7253 0-1.36-.1653-1.904-.496-.5333-.3307-.9493-.8-1.248-1.408s-.448-1.3227-.448-2.144.1493-1.536.448-2.144.7147-1.072 1.248-1.392c.544-.3307 1.1787-.496 1.904-.496.6507 0 1.2213.1547 1.712.464.5013.2987.8373.6987 1.008 1.2l-.128-.064.16-1.44h2.336c-.0427.352-.0747.7093-.096 1.072-.0213.352-.032.6987-.032 1.04v5.52c0 1.312-.368 2.3147-1.104 3.008-.736.704-1.8027 1.056-3.2 1.056zm.064-5.6c.5653 0 1.0133-.192 1.344-.576s.496-.9333.496-1.648-.1653-1.2587-.496-1.632c-.3307-.384-.7787-.576-1.344-.576-.5867 0-1.0507.192-1.392.576-.3307.3733-.496.9173-.496 1.632s.1653 1.264.496 1.648c.3413.384.8053.576 1.392.576zm10.285 2.192c-1.408 0-2.5067-.3787-3.296-1.136s-1.184-1.7867-1.184-3.088c0-.8427.1653-1.5787.496-2.208.3413-.6293.8107-1.12 1.408-1.472.608-.3627 1.3173-.544 2.128-.544.8 0 1.4667.1707 2 .512.544.3413.9493.8213 1.216 1.44.2773.608.416 1.3173.416 2.128v.56h-5.68v-1.2h3.92l-.272.224c0-.672-.1387-1.1787-.416-1.52-.2667-.352-.656-.528-1.168-.528-.5653 0-1.0027.208-1.312.624-.2987.416-.448 1.0133-.448 1.792v.256c0 .7893.192 1.376.576 1.76.3947.384.96.576 1.696.576.4373 0 .848-.0533 1.232-.16.3947-.1173.768-.2987 1.12-.544l.672 1.6c-.4053.2987-.8747.528-1.408.688-.5227.16-1.088.24-1.696.24zm4.7169-.176v-6c0-.3413-.0107-.688-.032-1.04-.0214-.3627-.0534-.72-.096-1.072h2.32l.176 1.504h-.192c.2346-.512.5813-.9173 1.04-1.216.4586-.2987 1.0026-.448 1.632-.448.6186 0 1.136.1493 1.552.448.4266.288.7306.7413.912 1.36h-.256c.2346-.5547.608-.992 1.12-1.312.512-.3307 1.0933-.496 1.744-.496.9173 0 1.6.272 2.048.816s.672 1.3973.672 2.56v4.896h-2.416v-4.816c0-.5653-.0907-.9707-.272-1.216-.1814-.2453-.4747-.368-.88-.368-.48 0-.8587.1707-1.136.512-.2774.3413-.416.8107-.416 1.408v4.48h-2.416v-4.816c0-.5653-.0907-.9707-.272-1.216-.1814-.2453-.4747-.368-.88-.368-.48 0-.8587.1707-1.136.512-.2667.3413-.4.8107-.4 1.408v4.48zm17.5701.176c-.7253 0-1.3867-.08-1.984-.24s-1.104-.384-1.52-.672l.624-1.6c.416.256.8747.4587 1.376.608.512.1493 1.0187.224 1.52.224.4693 0 .816-.0747 1.04-.224s.336-.352.336-.608c0-.2133-.0747-.3787-.224-.496-.1387-.1173-.3573-.2027-.656-.256l-1.648-.304c-.6933-.1387-1.2213-.3947-1.584-.768s-.544-.8587-.544-1.456c0-.5227.1387-.9813.416-1.376.288-.4053.6987-.72 1.232-.944s1.1573-.336 1.872-.336c.608 0 1.184.0747 1.728.224s1.008.3787 1.392.688l-.656 1.552c-.3307-.2453-.7147-.4427-1.152-.592-.4267-.1493-.8373-.224-1.232-.224-.512 0-.88.0853-1.104.256-.224.16-.336.368-.336.624 0 .192.064.352.192.48.1387.128.3467.224.624.288l1.664.304c.7147.128 1.2587.368 1.632.72s.56.8373.56 1.456c0 .5653-.1493 1.0453-.448 1.44s-.72.6987-1.264.912c-.5333.2133-1.152.32-1.856.32z" fill="#fff"></path></svg>