<svg width="28" height="28" viewBox="0 0 28 28" fill="none" xmlns="http://www.w3.org/2000/svg">
<path d="M16.9225 11.368C16.7744 10.7563 15.9766 9.54775 13.9666 9.48936M10.9829 16.8323C11.2733 17.4263 12.246 18.6142 13.8141 18.6142C13.8654 18.6142 13.9162 18.6135 13.9666 18.6123M13.9666 8.07031V9.48936M13.9666 9.48936C13.9165 9.48791 13.8656 9.48417 13.8141 9.48716C11.2109 9.6384 11.1938 11.4493 11.1938 11.7463C11.1938 12.0433 11.1809 13.4864 13.8141 13.9418C16.281 14.3684 17.0577 15.0942 17.0577 16.4492C17.0577 17.5675 15.9691 18.6123 13.9666 18.6123M13.9666 18.6123V20.026" stroke="white" stroke-width="1.75" stroke-linecap="round" stroke-linejoin="round"/>
<circle cx="14" cy="14" r="10.5" stroke="white" stroke-width="1.75"/>
</svg>
